<svg id="archive-tick" xmlns="http://www.w3.org/2000/svg" width="24" height="24" viewBox="0 0 24 24">
  <path id="Vector" d="M3.831-.75h9.579A4.613,4.613,0,0,1,18,3.844V17.9c0,1.674-.947,2.8-2.357,2.8a3.291,3.291,0,0,1-1.6-.46l-4.848-2.7-.007,0a1.193,1.193,0,0,0-.557-.119,1.235,1.235,0,0,0-.57.122l-4.85,2.7a3.3,3.3,0,0,1-1.6.453C.2,20.692-.75,19.57-.75,17.9V3.847A4.594,4.594,0,0,1,3.831-.75ZM15.643,19.2c.782,0,.867-.911.867-1.3V3.847a3.116,3.116,0,0,0-3.1-3.1H3.831a3.1,3.1,0,0,0-3.09,3.1V17.9c0,.39.085,1.3.873,1.3a1.876,1.876,0,0,0,.874-.267l4.847-2.7a2.694,2.694,0,0,1,1.295-.311,2.652,2.652,0,0,1,1.29.313l4.846,2.7A1.869,1.869,0,0,0,15.643,19.2Z" transform="translate(3.38 2.029)" fill="#36403a"/>
  <path id="Vector-2" data-name="Vector" d="M1.553,4.879a.765.765,0,0,1-.543-.225L-.525,3.119A.768.768,0,0,1,.56,2.033l.992.992L5.1-.525A.768.768,0,0,1,6.189.56L2.1,4.654A.765.765,0,0,1,1.553,4.879Z" transform="translate(9.505 8.446)" fill="#36403a"/>
  <path id="Vector-3" data-name="Vector" d="M0,0H24V24H0Z" fill="none" opacity="0"/>
</svg>
