<svg xmlns="http://www.w3.org/2000/svg" width="30" height="30" viewBox="0 0 30 30">
  <g id="Group_9923" data-name="Group 9923" transform="translate(-1678 -2053)">
    <rect id="Rectangle_3180" data-name="Rectangle 3180" width="30" height="30" rx="6" transform="translate(1678 2053)" fill="#fff"/>
    <g id="vuesax_outline_arrow-left" data-name="vuesax/outline/arrow-left" transform="translate(999 1870)">
      <g id="arrow-left" transform="translate(684 188)">
        <path id="Vector" d="M5.815,11.161a.647.647,0,0,1-.452-.18L.186,6.013a.6.6,0,0,1,0-.868L5.363.178a.663.663,0,0,1,.9,0,.6.6,0,0,1,0,.868L1.542,5.58l4.725,4.534a.6.6,0,0,1,0,.868A.632.632,0,0,1,5.815,11.161Z" transform="translate(2.348 4.42)" fill="#292d32"/>
        <path id="Vector-2" data-name="Vector" d="M14.543,1.279H.62A.635.635,0,0,1,0,.64.635.635,0,0,1,.62,0H14.543a.635.635,0,0,1,.62.64A.635.635,0,0,1,14.543,1.279Z" transform="translate(2.491 9.36)" fill="#292d32"/>
        <path id="Vector-3" data-name="Vector" d="M0,0H20V20H0Z" fill="none" opacity="0"/>
      </g>
    </g>
  </g>
</svg>
