<svg xmlns="http://www.w3.org/2000/svg" width="30" height="30" viewBox="0 0 30 30">
  <g id="Group_9923" data-name="Group 9923" transform="translate(-1678 -2053)">
    <g id="Rectangle_3180" data-name="Rectangle 3180" transform="translate(1678 2053)" fill="#fff" stroke="#fff" stroke-width="1">
      <rect width="30" height="30" rx="6" stroke="none"/>
      <rect x="0.5" y="0.5" width="29" height="29" rx="5.5" fill="none"/>
    </g>
    <g id="vuesax_outline_arrow-left" data-name="vuesax/outline/arrow-left" transform="translate(999 1870)">
      <g id="arrow-left" transform="translate(684 188)">
        <g id="Vector" transform="translate(2.348 4.42)" fill="#fff">
          <path d="M 5.815065860748291 10.66118621826172 C 5.773036003112793 10.66118621826172 5.737405776977539 10.64744663238525 5.709166049957275 10.62035655975342 L 0.531686007976532 5.652556419372559 C 0.5054959654808044 5.627416133880615 0.4999959766864777 5.598996162414551 0.4999959766864777 5.579576015472412 C 0.4999959766864777 5.560146331787109 0.5054959654808044 5.531726360321045 0.531686007976532 5.506596088409424 L 5.709166049957275 0.5387862324714661 C 5.734856128692627 0.5141361951828003 5.77345609664917 0.5000061988830566 5.815065860748291 0.5000061988830566 C 5.85667610168457 0.5000061988830566 5.895276069641113 0.5141361951828003 5.920966148376465 0.5387961864471436 C 5.947155952453613 0.5639262199401855 5.952655792236328 0.59234619140625 5.952655792236328 0.6117662191390991 C 5.952655792236328 0.6311861872673035 5.947155952453613 0.6596062183380127 5.920966148376465 0.6847361922264099 L 1.195556044578552 5.218796253204346 L 0.8195459842681885 5.579576015472412 L 1.195556044578552 5.940356254577637 L 5.920966148376465 10.47439575195312 C 5.947155952453613 10.49953651428223 5.952655792236328 10.52795600891113 5.952655792236328 10.54737663269043 C 5.952655792236328 10.56679630279541 5.947155952453613 10.59521579742432 5.920966148376465 10.62034606933594 L 5.914745807647705 10.62631607055664 L 5.908735752105713 10.63249588012695 C 5.894865989685059 10.64674663543701 5.858235836029053 10.66118621826172 5.815065860748291 10.66118621826172 Z" stroke="none"/>
          <path d="M 5.815065860748291 11.16118621826172 C 5.652996063232422 11.16118621826172 5.490935802459717 11.10389614105225 5.362996101379395 10.98113632202148 L 0.1855159848928452 6.013336181640625 C -0.06184400990605354 5.775996208190918 -0.06184400990605354 5.383146286010742 0.1855159848928452 5.145806312561035 L 5.362996101379395 0.1780062019824982 C 5.610356330871582 -0.05933378636837006 6.019775867462158 -0.05933378636837006 6.267136096954346 0.1780062019824982 C 6.514495849609375 0.4153462052345276 6.514495849609375 0.8081862330436707 6.267136096954346 1.045526266098022 L 1.541725993156433 5.579576015472412 L 6.267136096954346 10.11361598968506 C 6.514495849609375 10.35095596313477 6.514495849609375 10.74379634857178 6.267136096954346 10.98113632202148 C 6.147716045379639 11.10389614105225 5.977126121520996 11.16118621826172 5.815065860748291 11.16118621826172 Z" stroke="none" fill="#0b3855"/>
        </g>
        <g id="Vector-2" data-name="Vector" transform="translate(2.491 9.36)" fill="#fff">
          <path d="M 14.54326438903809 0.7794409394264221 L 0.6204448342323303 0.7794409394264221 C 0.5635948181152344 0.7794409394264221 0.5000048279762268 0.7196909189224243 0.5000048279762268 0.6397209167480469 C 0.5000048279762268 0.5597509145736694 0.5635948181152344 0.5000008940696716 0.6204448342323303 0.5000008940696716 L 14.54326438903809 0.5000008940696716 C 14.60012435913086 0.5000008940696716 14.66371440887451 0.5597509145736694 14.66371440887451 0.6397209167480469 C 14.66371440887451 0.7196909189224243 14.60012435913086 0.7794409394264221 14.54326438903809 0.7794409394264221 Z" stroke="none"/>
          <path d="M 14.54326438903809 1.279440879821777 L 0.6204448342323303 1.279440879821777 C 0.2812648117542267 1.279440879821777 4.820251433557132e-06 0.9894309043884277 4.820251433557132e-06 0.6397209167480469 C 4.820251433557132e-06 0.290010929107666 0.2812648117542267 9.167480357064051e-07 0.6204448342323303 9.167480357064051e-07 L 14.54326438903809 9.167480357064051e-07 C 14.88244438171387 9.167480357064051e-07 15.16371440887451 0.290010929107666 15.16371440887451 0.6397209167480469 C 15.16371440887451 0.9894309043884277 14.88244438171387 1.279440879821777 14.54326438903809 1.279440879821777 Z" stroke="none" fill="#0b3855"/>
        </g>
        <g id="Vector-3" data-name="Vector" fill="none" opacity="0">
          <path d="M0,0H20V20H0Z" stroke="none"/>
          <path d="M 1 1 L 1 19 L 19 19 L 19 1 L 1 1 M 0 0 L 20 0 L 20 20 L 0 20 L 0 0 Z" stroke="none" fill="#0b3855"/>
        </g>
      </g>
    </g>
  </g>
</svg>
