<svg xmlns="http://www.w3.org/2000/svg" xmlns:xlink="http://www.w3.org/1999/xlink" width="135.685" height="12.917" viewBox="0 0 135.685 12.917">
  <defs>
    <clipPath id="clip-path">
      <rect id="Rectangle_3830" data-name="Rectangle 3830" width="135.685" height="12.917" fill="none"/>
    </clipPath>
  </defs>
  <g id="Group_11650" data-name="Group 11650" transform="translate(0 0)">
    <g id="Group_11648" data-name="Group 11648" transform="translate(0 0)" clip-path="url(#clip-path)">
      <path id="Path_23923" data-name="Path 23923" d="M0,1.6H7.019c2.389,0,4.046,1.438,4.046,3.388a3.466,3.466,0,0,1-.877,2.242A3.307,3.307,0,0,1,12.234,10.3c0,2.047-1.681,3.485-4.07,3.485H0ZM3.412,6.478c.95-.024,1.925.365,3.144.365A2.044,2.044,0,0,0,8.774,5.016c0-1-.877-1.56-2.169-1.56H2.267V6.7a3.183,3.183,0,0,1,1.145-.219M7.8,11.938c1.243,0,2.145-.683,2.145-1.706A1.872,1.872,0,0,0,8.018,8.452c-.536,0-.8.2-1.682.2-1.194,0-1.828-.341-2.875-.341a2.564,2.564,0,0,0-1.194.244v3.388Z" transform="translate(0 -1.238)" fill="#ff6b00"/>
      <path id="Path_23924" data-name="Path 23924" d="M65.725,1.6h1.657L74.157,13.79H71.7l-1.438-2.632H62.922L61.484,13.79h-2.51Zm3.412,7.531-2.51-4.582h-.073l-2.51,4.582Z" transform="translate(-45.52 -1.238)" fill="#ff6b00"/>
      <path id="Path_23925" data-name="Path 23925" d="M127.444,3.529l-5.118-.024V1.6h12.551V3.578l-5.118-.024V13.79h-2.315Z" transform="translate(-94.419 -1.238)" fill="#ff6b00"/>
      <path id="Path_23926" data-name="Path 23926" d="M193.217,8.355a2.8,2.8,0,0,0-1.8.609V13.79H189.1V1.6h2.315V6.771a3.608,3.608,0,0,1,1.852-.463c1.584,0,3.436.8,4.947.8a2.82,2.82,0,0,0,1.8-.585V1.6h2.315V13.79h-2.315V8.745a3.75,3.75,0,0,1-1.852.414c-1.536,0-3.412-.8-4.947-.8" transform="translate(-145.957 -1.238)" fill="#ff6b00"/>
      <path id="Path_23927" data-name="Path 23927" d="M261.531,11.139l1.194-1.779s1.608,1.535,5.216,1.535c1.438,0,3.461-.292,3.461-1.755,0-1.072-1.17-1.292-3.875-1.682s-5.654-.877-5.654-3.631c0-2.681,2.779-3.851,5.581-3.826a11.33,11.33,0,0,1,6.312,1.73l-1.243,1.73a9.372,9.372,0,0,0-5.069-1.511c-1.8,0-3.144.536-3.144,1.828,0,1.145,1.657,1.365,3.7,1.682,3.022.463,5.873,1.048,5.873,3.68s-3.022,3.778-5.8,3.778c-4.777,0-6.556-1.779-6.556-1.779" transform="translate(-201.865 0)" fill="#ff6b00"/>
      <path id="Path_23928" data-name="Path 23928" d="M399.773,1.6h1.609c2.949,0,4.533,2.462,5.435,4.972.853,2.461,2.242,4.7,4.558,5.069V1.6h2.315V13.79h-1.853c-3.68,0-5.849-3.217-6.921-6.044-.756-1.974-1.316-3.509-2.827-3.851V13.79h-2.315Z" transform="translate(-308.569 -1.238)" fill="#ff6b00"/>
      <path id="Path_23929" data-name="Path 23929" d="M475.2,11.139l1.194-1.779s1.608,1.535,5.216,1.535c1.438,0,3.461-.292,3.461-1.755,0-1.072-1.17-1.292-3.875-1.682s-5.654-.877-5.654-3.631c0-2.681,2.779-3.851,5.581-3.826a11.33,11.33,0,0,1,6.312,1.73l-1.243,1.73a9.373,9.373,0,0,0-5.069-1.511c-1.8,0-3.144.536-3.144,1.828,0,1.145,1.657,1.365,3.7,1.682,3.022.463,5.873,1.048,5.873,3.68s-3.022,3.778-5.8,3.778c-4.777,0-6.556-1.779-6.556-1.779" transform="translate(-366.787 0)" fill="#ff6b00"/>
      <path id="Path_23930" data-name="Path 23930" d="M543.785,1.6h11.626v1.95h-9.334V6.722h9.09v1.95h-9.09V11.84h9.334v1.95H543.785Z" transform="translate(-419.726 -1.238)" fill="#ff6b00"/>
      <path id="Path_23931" data-name="Path 23931" d="M330.117,1.6h11.626v1.95h-9.334V6.722h9.09v1.95h-9.09V11.84h9.334v1.95H330.117Z" transform="translate(-254.804 -1.238)" fill="#ff6b00"/>
    </g>
  </g>
</svg>
