<svg xmlns="http://www.w3.org/2000/svg" xmlns:xlink="http://www.w3.org/1999/xlink" width="375" height="444.707" viewBox="0 0 375 444.707">
  <defs>
    <clipPath id="clip-path">
      <rect id="Rectangle_3604" data-name="Rectangle 3604" width="76" height="76" transform="translate(18 1111)" fill="#f8f0e4" stroke="#707070" stroke-width="1"/>
    </clipPath>
    <clipPath id="clip-path-2">
      <rect id="Rectangle_3605" data-name="Rectangle 3605" width="76" height="76" transform="translate(18 1111)" fill="#fff" stroke="#707070" stroke-width="1" opacity="0.42"/>
    </clipPath>
    <clipPath id="clip-path-3">
      <rect id="Rectangle_3830" data-name="Rectangle 3830" width="178.004" height="16.946" fill="none"/>
    </clipPath>
  </defs>
  <g id="Group_11909" data-name="Group 11909" transform="translate(0 -34)">
    <g id="Group_11640" data-name="Group 11640">
      <g id="Group_11283" data-name="Group 11283">
        <circle id="Ellipse_13" data-name="Ellipse 13" cx="11" cy="11" r="11" transform="translate(298 190)" fill="#125778" opacity="0.05"/>
        <circle id="Ellipse_16" data-name="Ellipse 16" cx="6" cy="6" r="6" transform="translate(64 275)" fill="#125778" opacity="0.42"/>
        <g id="Mask_Group_11247" data-name="Mask Group 11247" transform="translate(94 1274) rotate(180)" clip-path="url(#clip-path)">
          <circle id="Ellipse_17" data-name="Ellipse 17" cx="31" cy="31" r="31" transform="translate(54 1122)" fill="#125778" opacity="0.42"/>
        </g>
        <g id="Mask_Group_11248" data-name="Mask Group 11248" transform="translate(281 -1077)" clip-path="url(#clip-path-2)">
          <path id="Path_21321" data-name="Path 21321" d="M25.5,0A25.5,25.5,0,1,1,0,25.5,25.5,25.5,0,0,1,25.5,0Z" transform="translate(65 1122)" fill="#125778" opacity="0.3"/>
        </g>
      </g>
      <g id="Group_11639" data-name="Group 11639">
        <path id="Path_21322" data-name="Path 21322" d="M304.44,30.113c-13.041-5.389-27.742.625-40.5,6.653s-27.289,12.259-40.481,7.25c-15.69-5.957-21.954-24.838-35-35.392a38.856,38.856,0,0,0-57.5,9.807c-5.556,9-7.191,19.783-9.619,30.08s-6.169,21-14.465,27.562C98.59,82.624,87.043,84,78.976,90.809c-9.407,7.942-11.759,23.033-5.215,33.461,4.312,6.871,11.514,11.27,17.838,16.35s13.135,20.006,13.216,28.117H267.128a44.753,44.753,0,0,0,18.019-6.13c5.243-3.342,8.965-9.94,6.982-15.833-1.57-4.665-6.164-7.705-8.208-12.183-2.225-4.875-1.03-10.749,1.684-15.37s6.769-8.271,10.647-11.97c11.164-10.651,21.729-23.013,25.114-38.067S318.7,36.006,304.44,30.113" transform="translate(-8.669 271.115)" fill="#125778" opacity="0.42"/>
        <g id="Choose_Account_Illustration_1x" data-name="Choose_Account_Illustration@1x" transform="translate(86.529 292.655)">
          <path id="Path_23694" data-name="Path 23694" d="M1,212.553H211.942" transform="translate(0 -65.561)" fill="none" stroke="#b8b8b8" stroke-linecap="round" stroke-width="0.6"/>
          <g id="Group_11516" data-name="Group 11516" transform="translate(184.097 147.036)" opacity="0.16">
            <path id="Path_23695" data-name="Path 23695" d="M284.779,212.617s-2.117.044-3.186,0H271.339l-4.732,8.709c1.092,2.307,2.513,4.879,5.01,5.391a7.364,7.364,0,0,0,3.714-.469,25.4,25.4,0,0,0,8.181-4.27,8.711,8.711,0,0,0,3.237-4.395C287.211,215.774,286.464,213.408,284.779,212.617Z" transform="translate(-266.607 -212.617)" opacity="0.16"/>
          </g>
          <g id="Group_11517" data-name="Group 11517" transform="translate(14.663 147.036)" opacity="0.17">
            <path id="Path_23696" data-name="Path 23696" d="M40.845,222.014c-1.106-2.717-2.871-7.6-5.178-9.4,0,0-14.773.249-14.846,0L27.683,237.2A12.751,12.751,0,0,1,31.7,243.65c.711,2.285,1.3,4.739,2.93,6.461s4.871,2.2,6.292.3c1.6-2.146-.139-5.127-.19-7.8s1.641-5.032,2.329-7.617C44.244,230.664,42.53,226.152,40.845,222.014Z" transform="translate(-20.82 -212.617)" opacity="0.17"/>
          </g>
          <path id="Path_23697" data-name="Path 23697" d="M177.826,86.457c1.025-2.6,2.058-5.281,2.073-8.057s-1.224-5.808-3.663-7.009c-2.27-1.106-5-.469-7.4-1.238-2.93-.952-4.9-3.845-6.292-6.709s-2.526-5.969-4.79-8.152a10.049,10.049,0,0,0-11.463-1.545A17.071,17.071,0,0,0,137.4,51c-3.948,0-8.431.454-11.1,3.369-2.066,2.256-3.34,5.127-5.911,6.746-3.545,2.285-8.2.579-12.4.864a2.437,2.437,0,0,0-2.2,1.1,2.622,2.622,0,0,0,.4,2.117l3.465,6.695a6.483,6.483,0,0,1-5.64,0,19.152,19.152,0,0,0,5.369,11.88,1.609,1.609,0,0,0-2.2.923,4.1,4.1,0,0,0,.117,2.688,19.71,19.71,0,0,0,27.151,12.151l23.255,1.033a5.908,5.908,0,0,0,4.117,3.589c2.534-2,2.93-3.091,2.93-3.091,1.641,1.135.366.578,1.641,1.135,2.93,1.282,7.119-.476,7.668-3.7a6.8,6.8,0,0,1,1.465-3.581,12.021,12.021,0,0,1,3.332-1.985,9.572,9.572,0,0,0,4.117-4.482,6.89,6.89,0,0,1-5.164-1.992Z" transform="translate(-32.005 -15.375)" fill="#263238"/>
          <path id="Path_23698" data-name="Path 23698" d="M127.882,79.638a22.347,22.347,0,0,1,20.706-22.12l1.157-.081c12.5-.183,19.637,10.32,19.476,22.815l1.853,57.547-28.521,2.036-1.084-18.721s-12.093-.982-13.118-12.927C127.853,102.439,127.8,90.471,127.882,79.638Z" transform="translate(-39.406 -17.374)" fill="#ffbe9d"/>
          <path id="Path_23699" data-name="Path 23699" d="M136.59,102.012a1.714,1.714,0,0,0,1.773,1.6,1.647,1.647,0,0,0,1.648-1.67,1.706,1.706,0,0,0-1.772-1.6,1.633,1.633,0,0,0-1.648,1.67Z" transform="translate(-42.121 -30.703)" fill="#263238"/>
          <path id="Path_23700" data-name="Path 23700" d="M133.119,95.359c.227.212,1.465-.842,3.288-.974s3.252.688,3.435.454c.1-.11-.154-.5-.769-.879a4.747,4.747,0,0,0-2.776-.637,4.5,4.5,0,0,0-2.593,1.055C133.17,94.853,132.987,95.271,133.119,95.359Z" transform="translate(-41.03 -28.518)" fill="#263238"/>
          <path id="Path_23701" data-name="Path 23701" d="M148.655,111.016a11.92,11.92,0,0,0-3.025-.323c-.476,0-.923-.073-1.026-.388a2.391,2.391,0,0,1,.205-1.414l1.128-3.662c1.552-5.229,2.644-9.522,2.431-9.573s-1.641,4.124-3.193,9.353q-.556,1.934-1.069,3.663a2.75,2.75,0,0,0-.11,1.86,1.185,1.185,0,0,0,.828.63,2.82,2.82,0,0,0,.8.051A11.265,11.265,0,0,0,148.655,111.016Z" transform="translate(-44.387 -29.248)" fill="#263238"/>
          <path id="Path_23702" data-name="Path 23702" d="M132.285,88.887c.418.4,1.941-.139,3.809-.271s3.465.059,3.794-.4c.146-.227-.125-.63-.842-.981a6.2,6.2,0,0,0-3.142-.491,6.13,6.13,0,0,0-2.988,1.033C132.285,88.25,132.1,88.7,132.285,88.887Z" transform="translate(-40.762 -26.47)" fill="#263238"/>
          <path id="Path_23703" data-name="Path 23703" d="M186.186,103.3c.2-.1,8.056-3.032,8.371,5.127s-7.954,6.848-7.983,6.592S186.186,103.3,186.186,103.3Z" transform="translate(-57.528 -31.439)" fill="#ffbe9d"/>
          <path id="Path_23704" data-name="Path 23704" d="M189.149,113.127c.037,0,.154.1.4.2a1.461,1.461,0,0,0,1.069,0c.85-.352,1.523-1.758,1.5-3.237a4.728,4.728,0,0,0-.483-2.029,1.639,1.639,0,0,0-1.121-1.048.733.733,0,0,0-.82.425c-.1.234-.043.4-.088.41s-.183-.132-.132-.469a.915.915,0,0,1,.3-.527,1.074,1.074,0,0,1,.784-.242,1.984,1.984,0,0,1,1.546,1.208,4.828,4.828,0,0,1,.586,2.263c0,1.656-.732,3.23-1.934,3.626a1.531,1.531,0,0,1-1.318-.161C189.179,113.325,189.127,113.149,189.149,113.127Z" transform="translate(-58.447 -32.649)" fill="#eb996e"/>
          <path id="Path_23705" data-name="Path 23705" d="M167.548,69.706a19.167,19.167,0,0,0-3.186-6.592c-4.284-5.955-14.07-8.738-19.629-8.24s-11.323,4.614-16.5,6.68c-3.391,1.355-5.962,4.468-4.666,6.878a19.928,19.928,0,0,1-6.284,1.333s-.2,3.054,1.5,3.867l5.347,3.5c7.127.945,19.637-6.072,22.046-8.277a37.767,37.767,0,0,1,7.376-5.288c-2.271,5.955,5.127,4.636,4.922,6.943-2.263,8.372,4.57,11.463,4.57,11.463l.168,7.324c-.154,1.875.652,3.318,2.527,3.194a14.744,14.744,0,0,0,2.38-5.076C168.793,83.022,168.36,74.093,167.548,69.706Z" transform="translate(-36.12 -16.561)" fill="#263238"/>
          <path id="Path_23706" data-name="Path 23706" d="M147.471,147.228a29.1,29.1,0,0,0,15.33-5.735s-3.055,8.892-15.089,8.665Z" transform="translate(-45.501 -43.487)" fill="#eb996e"/>
          <path id="Path_23707" data-name="Path 23707" d="M161.633,100.418a1.714,1.714,0,0,0,1.772,1.6,1.633,1.633,0,0,0,1.648-1.67,1.714,1.714,0,0,0-1.772-1.6,1.649,1.649,0,0,0-1.648,1.67Z" transform="translate(-49.9 -30.208)" fill="#263238"/>
          <path id="Path_23708" data-name="Path 23708" d="M158.709,94.191c.227.234,1.67-.674,3.663-.6s3.457,1.055,3.662.842c.11-.1-.117-.513-.732-.96a5.509,5.509,0,0,0-2.93-.952,5.228,5.228,0,0,0-2.93.732C158.818,93.693,158.6,94.088,158.709,94.191Z" transform="translate(-48.984 -28.272)" fill="#263238"/>
          <path id="Path_23709" data-name="Path 23709" d="M158.442,85.979c.176.505,2.014.278,4.175.557s3.9.879,4.2.432c.132-.212-.168-.689-.871-1.179a7.324,7.324,0,0,0-6.379-.732C158.772,85.349,158.369,85.744,158.442,85.979Z" transform="translate(-48.907 -25.825)" fill="#263238"/>
          <path id="Path_23710" data-name="Path 23710" d="M150.562,122.37a33.318,33.318,0,0,1,4.725-1.208l1.164-.366a4.128,4.128,0,0,1,.264,3.465,3.35,3.35,0,0,1-2.264,1.552,2.406,2.406,0,0,1-1.934-.315S151.009,124.905,150.562,122.37Z" transform="translate(-46.461 -37.057)" fill="#eb996e"/>
          <path id="Path_23711" data-name="Path 23711" d="M153.669,125.735A3.915,3.915,0,0,0,155.4,125a3.266,3.266,0,0,0,1.106-1.641,4.084,4.084,0,0,0,0-2.424l-.044-.132.22.125c-1.758.388-3.347.732-4.5.944a9.435,9.435,0,0,1-1.882.279,10.7,10.7,0,0,1,1.823-.542c1.135-.286,2.717-.66,4.475-1.055l.169-.037.051.154.044.146a4.311,4.311,0,0,1,0,2.651,3.439,3.439,0,0,1-1.282,1.751,2.878,2.878,0,0,1-1.37.513C153.852,125.8,153.661,125.756,153.669,125.735Z" transform="translate(-46.382 -36.972)" fill="#263238"/>
          <path id="Path_23712" data-name="Path 23712" d="M197.211,96.846a1.476,1.476,0,0,1-.491-.125,2.878,2.878,0,0,1-1.143-.915,4.276,4.276,0,0,1-.842-2.146,12.982,12.982,0,0,1,.125-3.055,8.265,8.265,0,0,0-.154-3.574,3.4,3.4,0,0,0-1.106-1.589,8.305,8.305,0,0,0-1.831-1.077,12.831,12.831,0,0,1-2.036-1.091,4.342,4.342,0,0,1-1.523-1.919c-.666-1.553-.6-3.3-.974-4.929a5.613,5.613,0,0,0-.966-2.241,3.188,3.188,0,0,0-1.948-1.194c-.733-.176-1.568-.205-2.351-.359a3.561,3.561,0,0,1-2.073-1.106,4.856,4.856,0,0,1-.93-2.029c-.176-.7-.278-1.377-.418-2.014a7.849,7.849,0,0,0-.615-1.765,7.463,7.463,0,0,0-.982-1.414,7.684,7.684,0,0,0-4.5-2.468,11.868,11.868,0,0,0-1.941-.044,5.227,5.227,0,0,1,1.963-.1,7.676,7.676,0,0,1,4.7,2.432,7.336,7.336,0,0,1,1.04,1.465,7.8,7.8,0,0,1,.667,1.831c.146.645.256,1.326.432,1.992a4.578,4.578,0,0,0,.872,1.882,3.121,3.121,0,0,0,1.882.981c.733.146,1.546.168,2.359.352a3.61,3.61,0,0,1,2.2,1.326,6.062,6.062,0,0,1,1.04,2.388c.381,1.707.322,3.413.945,4.871a3.955,3.955,0,0,0,1.391,1.765,12.038,12.038,0,0,0,1.978,1.077,9.145,9.145,0,0,1,1.9,1.128,3.789,3.789,0,0,1,1.179,1.75,8.331,8.331,0,0,1,.132,3.706,12.826,12.826,0,0,0-.183,3,4.237,4.237,0,0,0,.733,2.087A2.931,2.931,0,0,0,197.211,96.846Z" transform="translate(-52.657 -18.68)" fill="#455a64"/>
          <path id="Path_23713" data-name="Path 23713" d="M113.629,66.356a1.459,1.459,0,0,1,.366.234l1.026.732a17.926,17.926,0,0,0,4.035,2.087,9.85,9.85,0,0,0,6.555.132,6.833,6.833,0,0,0,3.135-2.249,23.63,23.63,0,0,0,2.146-3.662,11.4,11.4,0,0,1,2.644-3.545,11.1,11.1,0,0,1,3.516-2.029,13.337,13.337,0,0,1,6.789-.5,18.079,18.079,0,0,1,4.395,1.362c.5.22.871.41,1.121.549a1.973,1.973,0,0,1,.374.227,1.733,1.733,0,0,1-.4-.154c-.263-.117-.645-.286-1.15-.491a20.161,20.161,0,0,0-4.395-1.23,13.307,13.307,0,0,0-6.592.564,10.87,10.87,0,0,0-3.392,1.978,10.989,10.989,0,0,0-2.52,3.384,22.758,22.758,0,0,1-2.2,3.743,7.04,7.04,0,0,1-3.355,2.322,10,10,0,0,1-6.767-.205,17.015,17.015,0,0,1-4.029-2.2c-.439-.322-.732-.586-.982-.732A2.105,2.105,0,0,1,113.629,66.356Z" transform="translate(-34.988 -17.342)" fill="#455a64"/>
          <path id="Path_23714" data-name="Path 23714" d="M109.145,86.2c.044-.051.608.447,1.619,1.069a14.644,14.644,0,0,0,4.293,1.743,14.466,14.466,0,0,0,4.621.271c1.186-.124,1.9-.33,1.926-.264s-.168.1-.491.205a8.774,8.774,0,0,1-1.4.322,12.649,12.649,0,0,1-4.746-.161,12.794,12.794,0,0,1-4.351-1.89,9,9,0,0,1-1.121-.9C109.248,86.36,109.123,86.221,109.145,86.2Z" transform="translate(-33.594 -26.309)" fill="#455a64"/>
          <path id="Path_23715" data-name="Path 23715" d="M119.133,96.13c.044-.1,1.289.41,2.93.674s2.93.205,2.974.315a8.21,8.21,0,0,1-5.859-.989Z" transform="translate(-36.698 -29.391)" fill="#455a64"/>
          <path id="Path_23716" data-name="Path 23716" d="M126.162,157.747l-23.512,6.475L77.279,182.533l6.768,11.573,119.614.2s-4.395-15.989-5.794-20.9c-2.16-7.405-5.09-9.521-7.763-12.2a12.726,12.726,0,0,0-4.271-2.512c-4.731-1.033-26.623-5.948-30.886-5.859,0,0-4.915,10.158-15.213,10.056S126.162,157.747,126.162,157.747Z" transform="translate(-23.696 -47.011)" fill="#ff4d62"/>
          <path id="Path_23717" data-name="Path 23717" d="M218.518,181.217c.073,0,.293-.966.989-2.409a19.55,19.55,0,0,1,3.626-5.069,45.6,45.6,0,0,1,4.753-4.124,18.618,18.618,0,0,0,2.029-1.655,13.985,13.985,0,0,0-2.2,1.414,33.558,33.558,0,0,0-4.878,4.064,17.451,17.451,0,0,0-3.6,5.245,10.257,10.257,0,0,0-.608,1.831A1.957,1.957,0,0,0,218.518,181.217Z" transform="translate(-67.572 -51.709)" fill="#263238"/>
          <path id="Path_23718" data-name="Path 23718" d="M114.3,198a13.232,13.232,0,0,0,.081-2.483c0-1.539-.1-3.663-.279-5.992s-.417-4.453-.637-5.969a12.72,12.72,0,0,0-.454-2.447,15.745,15.745,0,0,0,.154,2.483c.139,1.663.315,3.706.505,5.962s.293,4.306.4,5.969A15.618,15.618,0,0,0,114.3,198Z" transform="translate(-34.796 -55.795)" fill="#263238"/>
          <g id="Group_11518" data-name="Group 11518" transform="translate(66.782 137.008)" opacity="0.3">
            <path id="Path_23719" data-name="Path 23719" d="M102.1,206.318a12.532,12.532,0,0,0,5.34-2.724,5.068,5.068,0,0,0,1.348-5.523,17.352,17.352,0,0,0,16.011,9.947l-28.375.359A24.228,24.228,0,0,1,102.1,206.318Z" transform="translate(-96.426 -198.071)" opacity="0.3"/>
          </g>
          <path id="Path_23720" data-name="Path 23720" d="M286.179,210.607s-2.871-3.9-4.292-4.643-3.362-.732-4.219.044l-.857.769s-4.468-2-6.592-.461c0,0-4.248-2.007-6.277.293,0,0-3.274-2.131-4.659-.271s-1.245,5-.578,6.592,1.926,7.127,2.93,7.222c0,0,2.607.278,2.93-1.135s.5-2.087.5-2.087,1,4.987,2.2,5.237,3.494.117,3.567-2.073c0,0,1.113,1.648,2.2,1.172s2.431-1.282,2.314-2.637-.139-2.711-.139-2.711.6,1.978,1.582,1.546,1.978-.336,2.535-2.007,1.926-4.871,1.926-4.871Z" transform="translate(-79.904 -63.345)" fill="#ffbe9d"/>
          <path id="Path_23721" data-name="Path 23721" d="M282.456,216.371a12.971,12.971,0,0,0-.425-1.406,7.811,7.811,0,0,1,1.23-6.636c.527-.732.952-1.113.908-1.164s-.534.263-1.15.974a7.084,7.084,0,0,0-1.281,6.914A3.094,3.094,0,0,0,282.456,216.371Z" transform="translate(-87.088 -63.886)" fill="#eb996e"/>
          <path id="Path_23722" data-name="Path 23722" d="M274.783,206.762a6.78,6.78,0,0,0-.571,1.963,19.4,19.4,0,0,0,.659,9.793,6.971,6.971,0,0,0,.828,1.867,35.608,35.608,0,0,1-1.355-6.753A38.129,38.129,0,0,1,274.783,206.762Z" transform="translate(-84.766 -63.762)" fill="#eb996e"/>
          <path id="Path_23723" data-name="Path 23723" d="M266.225,207.24a15.749,15.749,0,0,0-.066,5.274,16.032,16.032,0,0,0,1.26,5.127c.124,0-.506-2.307-.828-5.178S266.349,207.248,266.225,207.24Z" transform="translate(-82.312 -63.911)" fill="#eb996e"/>
          <path id="Path_23724" data-name="Path 23724" d="M240.815,208.418a1.652,1.652,0,0,1,1.128-.909,3.615,3.615,0,0,1,3.237.864,12.437,12.437,0,0,1,2.366,2.93l-6.328-.044C241.276,210.278,240.464,209.318,240.815,208.418Z" transform="translate(-74.471 -63.967)" fill="#ffbe9d"/>
          <path id="Path_23725" data-name="Path 23725" d="M8.032,209.471a12.709,12.709,0,0,1,5.925-9.522,10.526,10.526,0,0,1,8.789-.871l12.21,4.248c.659.733,20.808-7.06,20.808-7.06l6.76,11.558-38.512-.059a90.276,90.276,0,0,0,6.724,6.892l2.615,8.687L33.1,231.2c-1.384.637-3.45-1.788-3.45-1.788l-1.209,2.2.4,2.131s3.56,8.642,3.435,10.569a1.093,1.093,0,0,1-.694,1.017,1.1,1.1,0,0,1-.427.074,2.593,2.593,0,0,1-2.476-1.465L23.618,234.1s-3.919-.952-5.288-2.241-3.413-3.75-3.413-3.75l-2.49-.352a1.32,1.32,0,0,1-.857-.168,4.651,4.651,0,0,1-2.52-3.37L7.783,217.63C7.475,216.136,7.717,212.649,8.032,209.471Z" transform="translate(-2.063 -60.502)" fill="#ffbe9d"/>
          <path id="Path_23726" data-name="Path 23726" d="M24.848,240.253a17.026,17.026,0,0,0,4.16,7.6c.1-.073-1.069-1.633-2.2-3.728S24.958,240.216,24.848,240.253Z" transform="translate(-7.408 -74.166)" fill="#eb996e"/>
          <path id="Path_23727" data-name="Path 23727" d="M16.317,239.211c-.132.051.33,1.069,1.121,2.138a6.7,6.7,0,0,0,1.6,1.8,7.728,7.728,0,0,0-1.267-2.043A14.6,14.6,0,0,0,16.317,239.211Z" transform="translate(-4.751 -73.843)" fill="#eb996e"/>
          <path id="Path_23728" data-name="Path 23728" d="M37.927,246.21a20.722,20.722,0,0,0-.688-2.4c-.447-1.465-1.025-3.523-1.589-5.8-.286-1.143-.542-2.2-.732-3.223a8.265,8.265,0,0,1-.264-2.629,4.139,4.139,0,0,1,.93-2.2,1.566,1.566,0,0,0-.513.447,3.663,3.663,0,0,0-.732,1.729,7.873,7.873,0,0,0,.183,2.746c.2,1,.447,2.095.732,3.245.571,2.285,1.194,4.328,1.714,5.786A12.656,12.656,0,0,0,37.927,246.21Z" transform="translate(-10.342 -70.968)" fill="#eb996e"/>
          <path id="Path_23729" data-name="Path 23729" d="M35.727,232.348c-.051.043.366.52.85,1.391a8.792,8.792,0,0,1,1.091,3.663,11.188,11.188,0,0,0,.183,2.2,3.232,3.232,0,0,0,.923,1.6,3.431,3.431,0,0,0,1.37.93c.044-.059-.5-.4-1.157-1.128a3.173,3.173,0,0,1-.769-1.465,12.679,12.679,0,0,1-.139-2.139,8.053,8.053,0,0,0-1.252-3.793A3.853,3.853,0,0,0,35.727,232.348Z" transform="translate(-10.787 -71.711)" fill="#eb996e"/>
          <path id="Path_23730" data-name="Path 23730" d="M29.176,210.252c.073-.1-1.355-1.282-2.8-3.047s-2.366-3.392-2.5-3.281a4.833,4.833,0,0,0,.505,1.1,16.187,16.187,0,0,0,1.677,2.447A10.429,10.429,0,0,0,29.176,210.252Z" transform="translate(-7.108 -62.879)" fill="#eb996e"/>
          <g id="Group_11519" data-name="Group 11519" transform="translate(141.491 136.232)" opacity="0.3">
            <path id="Path_23731" data-name="Path 23731" d="M212.074,207.983l.476-11.038L204.8,207.968Z" transform="translate(-204.801 -196.945)" opacity="0.3"/>
          </g>
          <path id="Path_23732" data-name="Path 23732" d="M215.33,207.068a58.042,58.042,0,0,1,.176-6.534,57.05,57.05,0,0,1,.549-6.512,55.11,55.11,0,0,1-.168,6.534A53.646,53.646,0,0,1,215.33,207.068Z" transform="translate(-66.573 -59.805)" fill="#263238"/>
          <path id="Path_23733" data-name="Path 23733" d="M188.326,157.048a1.911,1.911,0,0,1,.2.732,3.184,3.184,0,0,1-.535,2.036,4.6,4.6,0,0,1-2.688,1.97,14.265,14.265,0,0,1-4.395.374,17.991,17.991,0,0,0-2.549.132,6.214,6.214,0,0,0-2.542.909,5.277,5.277,0,0,0-1.824,2.2,14.96,14.96,0,0,0-.937,2.981c-.234,1.055-.447,2.146-.784,3.252a9.008,9.008,0,0,1-8.056,6.467,9.523,9.523,0,0,1-6.885-2.453,10.472,10.472,0,0,1-2.154-2.769,6.043,6.043,0,0,0-2.1-2.409,5,5,0,0,0-2.974-.52,24.785,24.785,0,0,0-2.93.5,14.934,14.934,0,0,1-2.791.381,7.229,7.229,0,0,1-2.578-.41,8.778,8.778,0,0,1-3.662-2.461,8.528,8.528,0,0,1-1.721-2.878,7.285,7.285,0,0,1-.329-1.179c-.037-.358-.1-.651-.1-.893v-.557a.809.809,0,0,1,0-.183,8.856,8.856,0,0,0,.549,2.761,8.809,8.809,0,0,0,5.362,5.135,7.082,7.082,0,0,0,2.483.373,14.677,14.677,0,0,0,2.732-.4,25.6,25.6,0,0,1,2.93-.527,5.321,5.321,0,0,1,3.172.549,6.387,6.387,0,0,1,2.241,2.526,10.3,10.3,0,0,0,2.095,2.681,9.2,9.2,0,0,0,6.592,2.351,8.865,8.865,0,0,0,6.175-3.2c1.516-1.794,1.875-4.123,2.366-6.218a14.623,14.623,0,0,1,.974-3.055,5.681,5.681,0,0,1,1.948-2.329,6.449,6.449,0,0,1,2.681-.938,17.417,17.417,0,0,1,2.586-.1,14.85,14.85,0,0,0,4.395-.308,4.516,4.516,0,0,0,2.622-1.853,3.159,3.159,0,0,0,.579-1.956A5.427,5.427,0,0,0,188.326,157.048Z" transform="translate(-41.934 -48.319)" fill="#fff"/>
          <path id="Path_23734" data-name="Path 23734" d="M146.593,198.795a2.337,2.337,0,0,1-.154-.5l-.4-1.465a17.364,17.364,0,0,0-2.2-5.018,8.367,8.367,0,0,0-1.164-1.369,7.164,7.164,0,0,0-1.59-1.106,8.151,8.151,0,0,0-4.175-.732,28.614,28.614,0,0,0-4.739.827,19.98,19.98,0,0,1-5.185.674,7.125,7.125,0,0,1-4.885-1.824,7.213,7.213,0,0,1-1.934-4.475,22.893,22.893,0,0,1,.1-4.395,21.58,21.58,0,0,0,.1-3.787,6.888,6.888,0,0,0-2.285-4.79,5.183,5.183,0,0,0-1.772-.9h.132a1.911,1.911,0,0,1,.388.08,4.162,4.162,0,0,1,1.348.689,6.966,6.966,0,0,1,2.461,4.878,21.184,21.184,0,0,1-.051,3.838,23.09,23.09,0,0,0-.066,4.344,6.086,6.086,0,0,0,6.526,5.991,19.59,19.59,0,0,0,5.127-.659,28.423,28.423,0,0,1,4.8-.813,8.517,8.517,0,0,1,4.343.806,7.346,7.346,0,0,1,1.648,1.179,9.148,9.148,0,0,1,1.186,1.465,16.551,16.551,0,0,1,2.087,5.127c.161.63.264,1.128.33,1.465A2.6,2.6,0,0,1,146.593,198.795Z" transform="translate(-35.82 -52.323)" fill="#fff"/>
          <path id="Path_23735" data-name="Path 23735" d="M209.084,197.391a16.261,16.261,0,0,0-3.2-1.223,11.539,11.539,0,0,0-3.662-.271,10.791,10.791,0,0,0-4.285,1.311,11.392,11.392,0,0,0-3.421,2.93,10.548,10.548,0,0,0-1.75,3.23,4.535,4.535,0,0,0-.161,2.44,6.891,6.891,0,0,0,.315.857,1.4,1.4,0,0,1-.161-.183,2.79,2.79,0,0,1-.3-.637,4.506,4.506,0,0,1,.044-2.549,10.5,10.5,0,0,1,1.736-3.369,11.421,11.421,0,0,1,3.509-3.032,10.874,10.874,0,0,1,4.446-1.333,11.273,11.273,0,0,1,3.765.359,10.544,10.544,0,0,1,2.366.96c.264.146.454.278.586.366S209.092,197.377,209.084,197.391Z" transform="translate(-59.426 -60.273)" fill="#fff"/>
          <path id="Path_23736" data-name="Path 23736" d="M227.811,166.741a2.02,2.02,0,0,1-.447-.909,5.223,5.223,0,0,1-.1-2.439,5.325,5.325,0,0,1,1.011-2.233c.4-.491.732-.733.732-.674a6.768,6.768,0,0,0-1.215,6.255Z" transform="translate(-70.257 -49.384)" fill="#fff"/>
          <path id="Path_23737" data-name="Path 23737" d="M242.4,190.623a1.242,1.242,0,0,1-.08.323,5.647,5.647,0,0,1-.337.879,8.553,8.553,0,0,1-2.1,2.754,8.954,8.954,0,0,1-4.658,2.131c-1.978.293-4.094-.336-6.219-.864a13.931,13.931,0,0,0-3.157-.484,8.846,8.846,0,0,0-2.93.454,10,10,0,0,0-4.16,2.717,9.583,9.583,0,0,0-1.824,2.849c-.307.733-.388,1.194-.432,1.186a.924.924,0,0,1,.043-.329,6.364,6.364,0,0,1,.25-.908,9.167,9.167,0,0,1,1.757-2.981,10.2,10.2,0,0,1,4.256-2.871,8.854,8.854,0,0,1,3.025-.49,14.607,14.607,0,0,1,3.237.483c2.146.534,4.2,1.157,6.086.886a8.793,8.793,0,0,0,4.527-1.985,8.969,8.969,0,0,0,2.146-2.615A6.41,6.41,0,0,0,242.4,190.623Z" transform="translate(-66.945 -58.749)" fill="#fff"/>
          <path id="Path_23738" data-name="Path 23738" d="M104.516,203.4a1.065,1.065,0,0,1-.256,0,3.823,3.823,0,0,1-.732,0,7.183,7.183,0,0,1-2.637-.689,7.781,7.781,0,0,1-3.077-2.615,7.39,7.39,0,0,1-1-2.2,19.841,19.841,0,0,1-.432-2.526,8.151,8.151,0,0,0-1.465-4.5,5.743,5.743,0,0,0-3.384-1.772,18.5,18.5,0,0,0-2.659-.271,6.878,6.878,0,0,1-1-.059,4.062,4.062,0,0,1,1-.088,14.319,14.319,0,0,1,2.71.154,5.892,5.892,0,0,1,3.6,1.809,5.564,5.564,0,0,1,1.106,2.16,16.7,16.7,0,0,1,.447,2.52,20.764,20.764,0,0,0,.417,2.476,6.907,6.907,0,0,0,.938,2.094,7.71,7.71,0,0,0,2.93,2.571A9.128,9.128,0,0,0,104.516,203.4Z" transform="translate(-26.988 -58.14)" fill="#fff"/>
          <g id="Group_11520" data-name="Group 11520" transform="translate(50.217 52.443)">
            <path id="Path_23739" data-name="Path 23739" d="M75.48,75.413a2.794,2.794,0,1,1-3.069,2.49A2.8,2.8,0,0,1,75.48,75.413Z" transform="translate(-72.396 -75.397)" fill="none" stroke="#f99" stroke-width="1.6"/>
          </g>
          <g id="Group_11521" data-name="Group 11521" transform="translate(103.37 1.506)">
            <path id="Path_23740" data-name="Path 23740" d="M153.429,1.525A3.559,3.559,0,1,1,149.521,4.7,3.561,3.561,0,0,1,153.429,1.525Z" transform="translate(-149.502 -1.506)" fill="none" stroke="#fbd15b" stroke-width="1.6"/>
          </g>
          <g id="Group_11522" data-name="Group 11522" transform="translate(152.191 81.343)">
            <path id="Path_23741" data-name="Path 23741" d="M222.816,117.333a2.259,2.259,0,1,1-2.48,2.013A2.26,2.26,0,0,1,222.816,117.333Z" transform="translate(-220.323 -117.321)" fill="none" stroke="#fbd15b" stroke-width="1.6"/>
          </g>
          <g id="Group_11523" data-name="Group 11523" transform="translate(77.289 24.351)">
            <path id="Path_23742" data-name="Path 23742" d="M114.531,39.687l.924-5.04" transform="translate(-112.557 -34.646)" fill="none" stroke="#c4e6db" stroke-linecap="round" stroke-width="1.6"/>
            <path id="Path_23743" data-name="Path 23743" d="M111.668,37.671l5.041.923" transform="translate(-111.668 -35.586)" fill="none" stroke="#c4e6db" stroke-linecap="round" stroke-width="1.6"/>
          </g>
          <g id="Group_11524" data-name="Group 11524" transform="translate(149.671 40.896)">
            <path id="Path_23744" data-name="Path 23744" d="M219.531,63.687l.924-5.04" transform="translate(-217.557 -58.646)" fill="none" stroke="#c4e6db" stroke-linecap="round" stroke-width="1.6"/>
            <path id="Path_23745" data-name="Path 23745" d="M216.668,61.671l5.041.923" transform="translate(-216.668 -59.586)" fill="none" stroke="#c4e6db" stroke-linecap="round" stroke-width="1.6"/>
          </g>
          <g id="Group_11525" data-name="Group 11525" transform="translate(121.903 23.715)">
            <line id="Line_146" data-name="Line 146" x2="7.125" y2="4.75" fill="none" stroke="#974fc2" stroke-linecap="round" stroke-width="2"/>
          </g>
          <g id="Group_11526" data-name="Group 11526" transform="translate(60.055 82.257)">
            <path id="Path_23746" data-name="Path 23746" d="M89.531,123.687l.924-5.041" transform="translate(-87.557 -118.646)" fill="none" stroke="#fff" stroke-linecap="round" stroke-width="1.6"/>
            <path id="Path_23747" data-name="Path 23747" d="M86.668,121.671l5.04.924" transform="translate(-86.668 -119.586)" fill="none" stroke="#fff" stroke-linecap="round" stroke-width="1.6"/>
          </g>
        </g>
      </g>
    </g>
    <g id="Group_11650" data-name="Group 11650" transform="translate(103.998 209.784)">
      <g id="Group_11648" data-name="Group 11648" transform="translate(0 0)" clip-path="url(#clip-path-3)">
        <path id="Path_23923" data-name="Path 23923" d="M0,1.6H9.208c3.134,0,5.307,1.886,5.307,4.444A4.548,4.548,0,0,1,13.365,8.99a4.339,4.339,0,0,1,2.686,4.029c0,2.686-2.206,4.572-5.339,4.572H0ZM4.476,8C5.723,7.967,7,8.478,8.6,8.478a2.681,2.681,0,0,0,2.909-2.4c0-1.311-1.151-2.046-2.845-2.046H2.973V8.286A4.175,4.175,0,0,1,4.476,8m5.755,7.162c1.63,0,2.813-.9,2.813-2.238a2.455,2.455,0,0,0-2.526-2.334c-.7,0-1.055.256-2.206.256-1.567,0-2.4-.448-3.772-.448a3.363,3.363,0,0,0-1.567.32v4.444Z" transform="translate(0 -1.124)" fill="#ff6b00"/>
        <path id="Path_23924" data-name="Path 23924" d="M67.83,1.6H70l8.888,15.987H75.664l-1.886-3.453H64.154l-1.886,3.453H58.974Zm4.477,9.88L69.013,5.473h-.1l-3.293,6.011Z" transform="translate(-41.323 -1.124)" fill="#ff6b00"/>
        <path id="Path_23925" data-name="Path 23925" d="M129.04,4.13,122.326,4.1V1.6h16.466v2.59l-6.714-.032V17.59H129.04Z" transform="translate(-85.715 -1.124)" fill="#ff6b00"/>
        <path id="Path_23926" data-name="Path 23926" d="M194.5,10.461a3.666,3.666,0,0,0-2.366.8v6.33H189.1V1.6h3.037V8.382a4.733,4.733,0,0,1,2.43-.608c2.078,0,4.508,1.055,6.49,1.055a3.7,3.7,0,0,0,2.366-.767V1.6h3.038V17.591h-3.038V10.972a4.92,4.92,0,0,1-2.43.544c-2.015,0-4.476-1.055-6.491-1.055" transform="translate(-132.502 -1.124)" fill="#ff6b00"/>
        <path id="Path_23927" data-name="Path 23927" d="M261.531,14.612l1.567-2.334s2.11,2.014,6.842,2.014c1.886,0,4.54-.384,4.54-2.3,0-1.407-1.534-1.695-5.083-2.206s-7.418-1.151-7.418-4.764c0-3.517,3.645-5.052,7.322-5.02a14.863,14.863,0,0,1,8.281,2.27l-1.631,2.27a12.3,12.3,0,0,0-6.65-1.983c-2.366,0-4.124.7-4.124,2.4,0,1.5,2.174,1.791,4.86,2.206,3.965.608,7.705,1.375,7.705,4.828s-3.964,4.956-7.61,4.956c-6.267,0-8.6-2.334-8.6-2.334" transform="translate(-183.256 0)" fill="#ff6b00"/>
        <path id="Path_23928" data-name="Path 23928" d="M399.773,1.6h2.11c3.869,0,5.947,3.229,7.13,6.523,1.119,3.229,2.942,6.171,5.979,6.65V1.6h3.037V17.591H415.6c-4.828,0-7.673-4.221-9.08-7.929-.991-2.59-1.726-4.6-3.709-5.052V17.591h-3.037Z" transform="translate(-280.123 -1.124)" fill="#ff6b00"/>
        <path id="Path_23929" data-name="Path 23929" d="M475.2,14.612l1.567-2.334s2.11,2.014,6.842,2.014c1.886,0,4.54-.384,4.54-2.3,0-1.407-1.534-1.695-5.084-2.206s-7.418-1.151-7.418-4.764c0-3.517,3.645-5.052,7.322-5.02a14.864,14.864,0,0,1,8.281,2.27l-1.631,2.27a12.3,12.3,0,0,0-6.65-1.983c-2.366,0-4.125.7-4.125,2.4,0,1.5,2.174,1.791,4.86,2.206,3.965.608,7.705,1.375,7.705,4.828s-3.964,4.956-7.61,4.956c-6.266,0-8.6-2.334-8.6-2.334" transform="translate(-332.974 0)" fill="#ff6b00"/>
        <path id="Path_23930" data-name="Path 23930" d="M543.785,1.6h15.251V4.162H546.791V8.318h11.925v2.558H546.791v4.157h12.245v2.558H543.785Z" transform="translate(-381.033 -1.124)" fill="#ff6b00"/>
        <path id="Path_23931" data-name="Path 23931" d="M330.117,1.6h15.251V4.162H333.123V8.318h11.925v2.558H333.123v4.157h12.245v2.558H330.117Z" transform="translate(-231.314 -1.124)" fill="#ff6b00"/>
      </g>
    </g>
  </g>
</svg>
