<svg xmlns="http://www.w3.org/2000/svg" width="11" height="11" viewBox="0 0 11 11">
  <g id="vuesax_outline_call" data-name="vuesax/outline/call" transform="translate(-108 -188)">
    <g id="call" transform="translate(108 188)">
      <path id="Vector" d="M6.681,8.885a3.767,3.767,0,0,1-1.464-.326,7.74,7.74,0,0,1-1.481-.851,12.88,12.88,0,0,1-1.39-1.186A12.339,12.339,0,0,1,1.163,5.132,7.716,7.716,0,0,1,.322,3.661,3.833,3.833,0,0,1,0,2.186a2.5,2.5,0,0,1,.169-.913,2.207,2.207,0,0,1,.553-.8A1.5,1.5,0,0,1,1.79,0a1.113,1.113,0,0,1,.466.1.944.944,0,0,1,.4.335l.957,1.351a1.6,1.6,0,0,1,.2.351.93.93,0,0,1,.082.368.878.878,0,0,1-.132.455,1.653,1.653,0,0,1-.276.351l-.28.293a.2.2,0,0,0,.012.029,3.178,3.178,0,0,0,.338.459c.2.231.392.442.582.636.243.24.445.43.635.587a2.686,2.686,0,0,0,.478.343l-.008.021.3-.3A1.541,1.541,0,0,1,5.91,5.1a.869.869,0,0,1,.8-.045,1.877,1.877,0,0,1,.346.194l1.369.975a.888.888,0,0,1,.33.393,1.2,1.2,0,0,1,.091.446,1.38,1.38,0,0,1-.132.583,1.925,1.925,0,0,1-.33.5,2.115,2.115,0,0,1-.788.566A2.431,2.431,0,0,1,6.681,8.885ZM1.79.62a.9.9,0,0,0-.639.3,1.585,1.585,0,0,0-.4.583,1.811,1.811,0,0,0-.128.686A3.191,3.191,0,0,0,.891,3.417a6.9,6.9,0,0,0,.775,1.347A11.427,11.427,0,0,0,2.784,6.079,11.619,11.619,0,0,0,4.1,7.2a6.7,6.7,0,0,0,1.357.781,2.456,2.456,0,0,0,1.91.145,1.523,1.523,0,0,0,.565-.409,1.34,1.34,0,0,0,.231-.347.733.733,0,0,0,.074-.318.494.494,0,0,0-.045-.207.313.313,0,0,0-.115-.124L6.706,5.748a1.182,1.182,0,0,0-.227-.128.217.217,0,0,0-.268.012.94.94,0,0,0-.239.186l-.313.31a.587.587,0,0,1-.6.124L4.949,6.2a3.516,3.516,0,0,1-.586-.417c-.2-.169-.412-.368-.672-.624-.2-.207-.4-.426-.615-.669a3.526,3.526,0,0,1-.421-.583l-.049-.124a.773.773,0,0,1-.033-.207.531.531,0,0,1,.157-.384l.309-.322a1.2,1.2,0,0,0,.186-.231A.265.265,0,0,0,3.271,2.5a.385.385,0,0,0-.033-.132,1.186,1.186,0,0,0-.132-.219L2.149.793A.38.38,0,0,0,2,.665.516.516,0,0,0,1.79.62ZM5.238,5.686l-.066.281.111-.289A.051.051,0,0,0,5.238,5.686Z" transform="translate(1.058 1.058)" fill="#c78416"/>
      <path id="Vector-2" data-name="Vector" d="M0,0H11V11H0Z" fill="none" opacity="0"/>
    </g>
  </g>
</svg>
