<svg id="Component_20_2" data-name="Component 20 – 2" xmlns="http://www.w3.org/2000/svg" width="30" height="30" viewBox="0 0 30 30">
  <rect id="Rectangle_3869" data-name="Rectangle 3869" width="30" height="30" rx="6" fill="#fff"/>
  <g id="Icon_feather-shopping-cart" data-name="Icon feather-shopping-cart" transform="translate(4.381 5.296)">
    <path id="Path_23935" data-name="Path 23935" d="M13.773,30.886A.886.886,0,1,1,12.886,30,.886.886,0,0,1,13.773,30.886Z" transform="translate(-5.179 -14.069)" fill="none" stroke="#414143" stroke-linecap="round" stroke-linejoin="round" stroke-width="1.5"/>
    <path id="Path_23936" data-name="Path 23936" d="M30.273,30.886A.886.886,0,1,1,29.386,30,.886.886,0,0,1,30.273,30.886Z" transform="translate(-13.57 -14.069)" fill="none" stroke="#414143" stroke-linecap="round" stroke-linejoin="round" stroke-width="1.5"/>
    <path id="Path_23937" data-name="Path 23937" d="M1.5,1.5H4.586l2.068,9.718A1.525,1.525,0,0,0,8.2,12.386h7.5a1.525,1.525,0,0,0,1.543-1.168l1.235-6.089H5.358" fill="none" stroke="#414143" stroke-linecap="round" stroke-linejoin="round" stroke-width="1.5"/>
  </g>
</svg>
