<svg xmlns="http://www.w3.org/2000/svg" width="18" height="18" viewBox="0 0 18 18">
  <g id="vuesax_linear_search-normal" data-name="vuesax/linear/search-normal" transform="translate(-428 -188)">
    <g id="search-normal" transform="translate(428 188)">
      <path id="Vector" d="M6.938-.75A7.688,7.688,0,1,1-.75,6.938,7.7,7.7,0,0,1,6.938-.75Zm0,14.25A6.563,6.563,0,1,0,.375,6.938,6.57,6.57,0,0,0,6.938,13.5Z" transform="translate(1.688 1.688)" fill="#fff"/>
      <path id="Vector-2" data-name="Vector" d="M1.313,1.875a.561.561,0,0,1-.4-.165L-.585.21a.563.563,0,0,1,0-.8.563.563,0,0,1,.8,0l1.5,1.5a.562.562,0,0,1-.4.96Z" transform="translate(15.188 15.188)" fill="#fff"/>
      <path id="Vector-3" data-name="Vector" d="M0,0H18V18H0Z" fill="none" opacity="0"/>
    </g>
  </g>
</svg>
