<svg xmlns="http://www.w3.org/2000/svg" width="43" height="66" viewBox="0 0 43 66">
  <g id="Group_11529" data-name="Group 11529" transform="translate(-986.683 -2161)">
    <path id="Path_23750" data-name="Path 23750" d="M227.723,40.948a1.231,1.231,0,0,0,.288-.037,12.553,12.553,0,0,0,4.358,6.769,12.061,12.061,0,0,0,7.5,2.621,7.391,7.391,0,0,0,1.124-.059h.31c.288-.037.576-.081.864-.14l.252-.044h0a12.144,12.144,0,0,0,2.16-.686l.159-.074c.31-.133.612-.287.915-.45l.1-.052c.339-.192.677-.4,1-.619h0a12.425,12.425,0,0,0,3.723-4.143,1.193,1.193,0,0,0,.087-.111,13.019,13.019,0,0,0,.583-1.246q.216-.546.389-1.106l.043-.125c.043-.162.094-.317.13-.479h0a1.221,1.221,0,0,0,.288,0,3.381,3.381,0,0,0,2.414-1.028,3.544,3.544,0,0,0,1-2.473V36.215h0a3.537,3.537,0,0,0-.847-2.294,3.382,3.382,0,0,0-2.113-1.156l.209-.169h0a.676.676,0,0,0,.173-.228.382.382,0,0,0,0-.081.768.768,0,0,0,.05-.169v-.067a10.7,10.7,0,0,0,.051-1.083,8.687,8.687,0,0,0-.051-1.135V25.742a8.349,8.349,0,0,0-2.35-5.814,7.967,7.967,0,0,0-5.672-2.426h-5.041a12.719,12.719,0,0,0-5.394,1.187,7.8,7.8,0,0,0-5.429,2.436,8.163,8.163,0,0,0-2.233,5.62v4.187a1.908,1.908,0,0,0,0,.287.733.733,0,0,0,.475.6l.36.111v.789a3.378,3.378,0,0,0-2.337,1.062,3.534,3.534,0,0,0-.961,2.425v1.238a3.543,3.543,0,0,0,1,2.478,3.381,3.381,0,0,0,2.423,1.023Zm17.283,6.531h-.079c-.267.148-.54.28-.821.405l-.13.059h0a10.382,10.382,0,0,1-1.9.6l-.216.044c-.252.052-.511.088-.763.118h-.273a8.918,8.918,0,0,1-.994.051,10.676,10.676,0,0,1-7.638-3.238,11.188,11.188,0,0,1-3.164-7.818V32.2a7.393,7.393,0,0,0,1.44,0,8.035,8.035,0,0,0,1.426-.251,5.266,5.266,0,0,0,.807-.28l.187-.081c.18-.081.36-.162.526-.251s.389-.229.555-.339a5.839,5.839,0,0,0,.605-.427,12.251,12.251,0,0,0,1.915,2.02,12.456,12.456,0,0,0,14.222,1.393v3.781a6.749,6.749,0,0,1-.051,1.017v.2c-.036.332-.086.663-.151.988v.088c-.065.317-.144.626-.23.936h0a.452.452,0,0,0,0,.088,11.055,11.055,0,0,1-5.235,6.4Zm8.973-11.27v1.253h0a2.056,2.056,0,0,1-.541,1.389,1.963,1.963,0,0,1-1.324.631V34.189h.058a1.949,1.949,0,0,1,1.291.647,2.038,2.038,0,0,1,.516,1.373ZM228.2,26.744a6.667,6.667,0,0,1,1.885-4.652,6.363,6.363,0,0,1,4.545-1.93.765.765,0,0,0,.31-.074,11.3,11.3,0,0,1,4.926-1.113h5.041a6.542,6.542,0,0,1,4.672,1.984,6.855,6.855,0,0,1,1.939,4.782v5.934a8.5,8.5,0,0,1-.821.589,10.916,10.916,0,0,1-6.107,1.85,11.212,11.212,0,0,1-9.311-5.042.767.767,0,0,0-.555-.309h-.05a.712.712,0,0,0-.547.251c-.086.088-.18.169-.281.258l-.079.059h0a5.482,5.482,0,0,1-.54.39c-.151.1-.3.192-.461.273s-.3.148-.432.214l-.18.074a4.07,4.07,0,0,1-.619.214,6.57,6.57,0,0,1-1.116.214,6.259,6.259,0,0,1-2.16-.162Zm-2.448,9.464h0a2.046,2.046,0,0,1,.537-1.388,1.954,1.954,0,0,1,1.321-.632v5.277a1.956,1.956,0,0,1-1.321-.631,2.046,2.046,0,0,1-.537-1.388Z" transform="translate(767.954 2143.499)" fill="#125778"/>
    <path id="Path_23751" data-name="Path 23751" d="M211.25,276.711h-2.174l-.6-1.143h0a1.451,1.451,0,0,0-.92-.737,1.429,1.429,0,0,0-1.16.191l-5.058,3.272-5-3.265a1.429,1.429,0,0,0-1.159-.2,1.456,1.456,0,0,0-.921.742l-.595,1.135h-1.449a12.019,12.019,0,0,0-8.506,3.7,12.435,12.435,0,0,0-3.459,8.726v18.737a.744.744,0,0,0,.212.521.719.719,0,0,0,.513.216h41.55a.719.719,0,0,0,.513-.216.743.743,0,0,0,.212-.521V289.138a12.433,12.433,0,0,0-3.47-8.737,12.018,12.018,0,0,0-8.525-3.69Zm-4.117-.435.609,1.172-2.537,5.676.66.3-.689-.3-.442-.6h0a.737.737,0,0,0-.276-.369l-2.073-2.794Zm-3.675,25.7-2.123,2.513-2.073-2.513,1.348-16.15a2.248,2.248,0,0,0,.725.14,2.323,2.323,0,0,0,.725-.125Zm-1.29-17.853a1.235,1.235,0,0,1-.768.361c-.529,0-1.167-.6-1.819-1.7l1.754-2.4,1.848,2.418a5.185,5.185,0,0,1-1.015,1.312Zm-6.588-7.857,4.732,3.1-2.819,3.766-2.544-5.7Zm-3.341,1.917h1.45l2.486,5.55h0a1.453,1.453,0,0,0,1.167.862h.166a1.441,1.441,0,0,0,1.138-.56,7.554,7.554,0,0,0,.609.8l-1.45,17.321a.745.745,0,0,0,.167.538l2.71,3.236a.742.742,0,0,0,.188.28.721.721,0,0,0,.464.184h.058a.718.718,0,0,0,.464-.177.676.676,0,0,0,.2-.28l2.71-3.229a.743.743,0,0,0,.167-.538L203.51,284.9a7.028,7.028,0,0,0,.638-.818,1.441,1.441,0,0,0,1.1.523h.166a1.452,1.452,0,0,0,1.174-.862l2.486-5.558h2.174a10.581,10.581,0,0,1,7.5,3.259,10.947,10.947,0,0,1,3.045,7.694v17.934h-5.2V287.524a.725.725,0,1,0-1.45,0v19.613H188.334V287.524a.725.725,0,1,0-1.45,0v19.547H181.7V289.138a10.946,10.946,0,0,1,3.045-7.694,10.582,10.582,0,0,1,7.5-3.259Z" transform="translate(806.438 1918.388)" fill="#125778"/>
  </g>
</svg>
