<svg xmlns="http://www.w3.org/2000/svg" width="24" height="24" viewBox="0 0 24 24">
  <g id="Group_11911" data-name="Group 11911" transform="translate(-4046 -9178)">
    <rect id="Rectangle_3905" data-name="Rectangle 3905" width="24" height="24" rx="2" transform="translate(4046 9178)" fill="none"/>
    <path id="Icon_feather-facebook" data-name="Icon feather-facebook" d="M16.364,1.5h2.455a.818.818,0,0,1,.818.818V5.591a.818.818,0,0,1-.818.818H16.364V8.045h2.455a.818.818,0,0,1,.794,1.017l-.818,3.273a.818.818,0,0,1-.794.62H16.364v5.727a.818.818,0,0,1-.818.818H12.273a.818.818,0,0,1-.818-.818V12.955H9.818A.818.818,0,0,1,9,12.136V8.864a.818.818,0,0,1,.818-.818h1.636V6.409A4.915,4.915,0,0,1,16.364,1.5ZM18,3.136H16.364a3.276,3.276,0,0,0-3.273,3.273V8.864a.818.818,0,0,1-.818.818H10.636v1.636h1.636a.818.818,0,0,1,.818.818v5.727h1.636V12.136a.818.818,0,0,1,.818-.818h1.816l.409-1.636H15.545a.818.818,0,0,1-.818-.818V6.409a1.638,1.638,0,0,1,1.636-1.636H18Z" transform="translate(4043.682 9179.5)" fill="#0b3855"/>
  </g>
</svg>
