<svg id="grid-7" xmlns="http://www.w3.org/2000/svg" width="24" height="24" viewBox="0 0 24 24">
  <path id="Vector" d="M12.981,20.72H6.989c-2.766,0-4.64-.585-5.9-1.842S-.75,15.747-.75,12.981V6.989c0-2.766.585-4.64,1.842-5.9S4.223-.75,6.989-.75h5.992c2.766,0,4.64.585,5.9,1.842s1.842,3.131,1.842,5.9v5.992c0,2.766-.585,4.64-1.842,5.9S15.747,20.72,12.981,20.72ZM6.989.748c-2.343,0-3.88.446-4.838,1.4S.748,4.646.748,6.989v5.992c0,2.343.446,3.88,1.4,4.838s2.495,1.4,4.838,1.4h5.992c2.343,0,3.88-.446,4.838-1.4s1.4-2.495,1.4-4.838V6.989c0-2.343-.446-3.88-1.4-4.838s-2.495-1.4-4.838-1.4Z" transform="translate(2.015 2.015)" fill="#36403a"/>
  <path id="Vector-2" data-name="Vector" d="M19.971.768H0A.754.754,0,0,1-.75.009.754.754,0,0,1,0-.75H19.971a.754.754,0,0,1,.749.759A.754.754,0,0,1,19.971.768Z" transform="translate(2.015 9.993)" fill="#36403a"/>
  <path id="Vector-3" data-name="Vector" d="M.009,12.742a.754.754,0,0,1-.759-.75V0A.754.754,0,0,1,.009-.75.754.754,0,0,1,.768,0V11.993A.754.754,0,0,1,.009,12.742Z" transform="translate(11.991 9.993)" fill="#36403a"/>
  <path id="Vector-4" data-name="Vector" d="M0,0H24V24H0Z" fill="none" opacity="0"/>
</svg>
