<svg xmlns="http://www.w3.org/2000/svg" width="68" height="66" viewBox="0 0 68 66">
  <g id="Group_11528" data-name="Group 11528" transform="translate(-814.787 -2313)">
    <path id="Path_23748" data-name="Path 23748" d="M440.469,239.578h9.663a.823.823,0,0,0,.871-.871V220.948a.823.823,0,0,0-.871-.871h-9.663a.823.823,0,0,0-.871.871v17.759A.937.937,0,0,0,440.469,239.578Zm.871-17.759h7.922v16.018H441.34Z" transform="translate(423.6 2115.222)" fill="#125778"/>
    <path id="Path_23749" data-name="Path 23749" d="M191.455,75.6H125.182a.817.817,0,0,0-.863.866V93.439a.817.817,0,0,0,.863.866h2.243v46.424a.817.817,0,0,0,.863.866h60.06a.817.817,0,0,0,.863-.866V94.3h2.243a.817.817,0,0,0,.863-.866V76.462a.929.929,0,0,0-.863-.866Zm-65.411,7.275h5.523v9.7h-5.523Zm56.695,9.7h-5.782v-9.7h5.782Zm-7.594,0h-5.523v-9.7h5.523Zm-7.162,0H162.2v-9.7h5.782Zm-7.507,0h-5.523v-9.7h5.523Zm-7.162,0h-5.35v-9.7h5.35Zm-7.076,0h-5.782v-9.7h5.782Zm-7.507,0h-5.523v-9.7h5.523Zm29.253,47.29H156.937V128.689H160.3a.866.866,0,0,0,0-1.733h-8.457a.866.866,0,0,0,0,1.733h3.365v11.173h-13.29V128.689h3.365a.866.866,0,0,0,0-1.733h-8.457a.866.866,0,0,0,0,1.733H140.2v11.173H129.237V123.32h38.746Zm0-18.275H129.151v-2.6h38.832Zm19.5,18.275H169.709V94.3h17.776Zm-19.5-22.606H129.151V94.3h38.832Zm22.609-24.684h-6.127v-9.7h6.127Zm0-11.432H126.044V77.329h64.548Z" transform="translate(690.469 2237.404)" fill="#125778"/>
  </g>
</svg>
