<svg xmlns="http://www.w3.org/2000/svg" xmlns:xlink="http://www.w3.org/1999/xlink" width="375" height="388" viewBox="0 0 375 388">
  <defs>
    <clipPath id="clip-path">
      <rect id="Rectangle_3604" data-name="Rectangle 3604" width="76" height="76" transform="translate(18 1111)" fill="#f8f0e4" stroke="#707070" stroke-width="1"/>
    </clipPath>
    <clipPath id="clip-path-2">
      <rect id="Rectangle_3605" data-name="Rectangle 3605" width="76" height="76" transform="translate(18 1111)" fill="#fff" stroke="#707070" stroke-width="1"/>
    </clipPath>
    <clipPath id="clip-path-3">
      <rect id="Rectangle_3813" data-name="Rectangle 3813" width="280.39" height="160" fill="none"/>
    </clipPath>
    <clipPath id="clip-path-6">
      <rect id="Rectangle_3811" data-name="Rectangle 3811" width="13.967" height="27.79" fill="none"/>
    </clipPath>
    <clipPath id="clip-path-7">
      <rect id="Rectangle_3830" data-name="Rectangle 3830" width="178.004" height="16.946" fill="none"/>
    </clipPath>
  </defs>
  <g id="Group_11668" data-name="Group 11668" transform="translate(0 -34)">
    <g id="Group_11641" data-name="Group 11641">
      <g id="Group_11283" data-name="Group 11283">
        <circle id="Ellipse_13" data-name="Ellipse 13" cx="11" cy="11" r="11" transform="translate(298 190)" fill="#125778" opacity="0.38"/>
        <circle id="Ellipse_15" data-name="Ellipse 15" cx="6" cy="6" r="6" transform="translate(155 250)" fill="#125778" opacity="0.1"/>
        <circle id="Ellipse_16" data-name="Ellipse 16" cx="6" cy="6" r="6" transform="translate(44 238)" fill="#125778" opacity="0.62"/>
        <g id="Mask_Group_11247" data-name="Mask Group 11247" transform="translate(94 1274) rotate(180)" clip-path="url(#clip-path)">
          <path id="Path_23932" data-name="Path 23932" d="M31,0A31,31,0,1,1,0,31,31,31,0,0,1,31,0Z" transform="translate(54 1122)" fill="#125778" opacity="0.44"/>
        </g>
        <g id="Mask_Group_11248" data-name="Mask Group 11248" transform="translate(281 -1077)" clip-path="url(#clip-path-2)">
          <path id="Path_21321" data-name="Path 21321" d="M25.5,0A25.5,25.5,0,1,1,0,25.5,25.5,25.5,0,0,1,25.5,0Z" transform="translate(65 1122)" fill="#125778" opacity="0.33"/>
        </g>
      </g>
      <g id="Group_11540" data-name="Group 11540" transform="translate(47.305 262)">
        <g id="Group_11539" data-name="Group 11539" clip-path="url(#clip-path-3)">
          <g id="Group_11533" data-name="Group 11533" transform="translate(0 0)">
            <g id="Group_11532" data-name="Group 11532" clip-path="url(#clip-path-3)">
              <path id="Path_23753" data-name="Path 23753" d="M19.956,159.516s-31.312-29.97.447-73.359C48.781,47.388,27.592,28.865,56.718,9.974c29.44-19.095,54.49-7.465,82.67,7.3s67.1-20.576,109.144-1.789,36,47.5,25.6,77.03c-8.78,24.924,17.919,42.934,3.355,67.047,0,0-258.426-.937-257.532-.042" transform="translate(-5.495 0.001)" fill="#125778" opacity="0.42"/>
              <path id="Path_23754" data-name="Path 23754" d="M820.379,602.217H677.82a3.716,3.716,0,0,1-3.705-3.705v-94.4a3.716,3.716,0,0,1,3.705-3.705H820.379a3.716,3.716,0,0,1,3.705,3.705v94.4a3.716,3.716,0,0,1-3.705,3.705" transform="translate(-600.175 -445.516)" fill="#2b478b"/>
              <rect id="Rectangle_3677" data-name="Rectangle 3677" width="143.204" height="97.222" transform="translate(77.322 58.444)" fill="#dde7fe"/>
              <path id="Path_23755" data-name="Path 23755" d="M694.512,1399.094h-180.3a2.664,2.664,0,0,1-2.664-2.664v-1.19a2.664,2.664,0,0,1,2.664-2.664h180.3a2.664,2.664,0,0,1,2.664,2.664v1.19a2.664,2.664,0,0,1-2.664,2.664" transform="translate(-455.435 -1239.832)" fill="#2b478b"/>
              <rect id="Rectangle_3678" data-name="Rectangle 3678" width="143.204" height="94.639" transform="translate(77.322 58.444)" fill="#aec3ff"/>
              <path id="Path_23756" data-name="Path 23756" d="M269.52,1422a7.221,7.221,0,0,1,.211-1.867c.211-.466.986-2.363.986-2.363h3.03a16.77,16.77,0,0,1,.6,2.3c.035.566,0,1.934,0,1.934Z" transform="translate(-239.958 -1262.266)" fill="#233862"/>
              <path id="Path_23757" data-name="Path 23757" d="M405.586,1422a7.217,7.217,0,0,0-.211-1.867c-.211-.466-.986-2.363-.986-2.363h-3.03a16.764,16.764,0,0,0-.6,2.3c-.035.566,0,1.934,0,1.934Z" transform="translate(-356.789 -1262.266)" fill="#233862"/>
              <path id="Path_23758" data-name="Path 23758" d="M302.78,726.107a25.368,25.368,0,0,1-.529,4.518l-3.346,2.2,12.594,1.78-3-3.92s-.907-4.183-.431-5.731-5.284,1.148-5.284,1.148" transform="translate(-266.12 -645.015)" fill="#ffb27d"/>
              <path id="Path_23759" data-name="Path 23759" d="M334.067,743.245s1,2.265,2.872,2.215a2.586,2.586,0,0,0,2.3-2.054Z" transform="translate(-297.425 -661.722)" fill="#ed985f"/>
              <path id="Path_23760" data-name="Path 23760" d="M313.648,653.359a27.178,27.178,0,0,0-1.029-3.722c-.423-.865-.775-4.726,3.91-4.926a5.689,5.689,0,0,0,2.783-.366s0,.566-.247.765a3.236,3.236,0,0,1,2.889.965c1.268,1.331-.845,5.991-.74,7.089Z" transform="translate(-278.125 -573.67)" fill="#2c3a64"/>
              <path id="Path_23761" data-name="Path 23761" d="M326.949,685.977c-1.359-.023-3.861-1.732-3.861-3.85v-3.3a1.346,1.346,0,0,1,1.268-1.406h5.185a1.346,1.346,0,0,1,1.268,1.406v3.117a4.368,4.368,0,0,1-3.861,4.037" transform="translate(-287.65 -603.115)" fill="#ffb27d"/>
              <path id="Path_23762" data-name="Path 23762" d="M321.684,674.513s.007-1.985,1.672-2.291,5.39.968,5.918-.48-7.2-1.423-7.59-.5a8.828,8.828,0,0,0,0,3.27" transform="translate(-286.246 -597.041)" fill="#2c3a64"/>
              <path id="Path_23763" data-name="Path 23763" d="M268,1013.928s.53,15.291-.262,24.016a164.8,164.8,0,0,0,.006,20.867,6.3,6.3,0,0,0,5.282,0s3.013-16.856,2.994-20.867c-.02-4.272,3.28-23.35,3.28-23.35Z" transform="translate(-238.062 -902.716)" fill="#2b478b"/>
              <path id="Path_23764" data-name="Path 23764" d="M350.087,1058.6a6.3,6.3,0,0,1-5.282,0s-3.013-16.856-2.994-20.867a103.249,103.249,0,0,0-1.252-10.783c-.927-6.2-2.028-12.566-2.028-12.566l11.738-.693s-.968,15.318-.175,24.042a164.742,164.742,0,0,1-.006,20.867" transform="translate(-301.399 -902.505)" fill="#2b478b"/>
              <path id="Path_23765" data-name="Path 23765" d="M287.438,808.654a62.047,62.047,0,0,1-9.569.915,48.942,48.942,0,0,1-5.877-.424c-1.9-.239-3.27-.491-3.27-.491s-1.015.084-.415-4.642a62.813,62.813,0,0,0,.211-10.184c-.012-.371,0-.811.021-1.3.195-3.895,1.442-10.907,2.391-11.283a18.271,18.271,0,0,1,3.909-.738c0,.046,1.449,2.047,3.168,2.271a5.95,5.95,0,0,0,3.076-2.207,35.244,35.244,0,0,1,4.822.879s.18.743.858,13.63c.269,5.105,2.114,13.589.673,13.573" transform="translate(-238.709 -694.897)" fill="#f99746"/>
              <path id="Path_23766" data-name="Path 23766" d="M358.272,1102.227a103.26,103.26,0,0,0-1.252-10.783,20.786,20.786,0,0,1,2.415-5.314c2.166,5.741-1.163,16.1-1.163,16.1" transform="translate(-317.86 -966.998)" fill="#233862"/>
              <path id="Path_23767" data-name="Path 23767" d="M180.285,801.915a6.907,6.907,0,0,0,.91,2.338c1.262,2.609,3.357,6.462,3.357,6.462a11,11,0,0,1-.636,1.759,43.382,43.382,0,0,1-7.25-6.551,12.48,12.48,0,0,1-2.458-3.778c7.85-15.1,13.374-15.653,13.374-15.653l-.653,9.977s-6.282,5.16-6.645,5.445" transform="translate(-155.1 -700.227)" fill="#f99746"/>
              <path id="Path_23768" data-name="Path 23768" d="M262.366,1000.817s1.9-1.664,2.677-.732.916,2.4.317,2.3-1.832-.632-2.008-.366-.965.775-1.2.371.218-1.569.218-1.569" transform="translate(-233.332 -890.138)" fill="#ffb27d"/>
              <path id="Path_23769" data-name="Path 23769" d="M204.5,954.878a11.011,11.011,0,0,1-.636,1.759,43.376,43.376,0,0,1-7.25-6.551,9.37,9.37,0,0,0,4.528-1.67c1.262,2.609,3.357,6.462,3.357,6.462" transform="translate(-175.052 -844.389)" fill="#ffb27d"/>
              <path id="Path_23770" data-name="Path 23770" d="M438.483,803.348a12.477,12.477,0,0,1-2.458,3.778,43.37,43.37,0,0,1-7.249,6.551,11.008,11.008,0,0,1-.636-1.759s2.1-3.853,3.357-6.462a6.9,6.9,0,0,0,.91-2.338c-.282-.222-4.119-3.372-5.831-4.776l-.814-.669-.392-9.829s5.264.408,13.114,15.5" transform="translate(-378.713 -701.429)" fill="#f99746"/>
              <path id="Path_23771" data-name="Path 23771" d="M427.116,1000.817s-1.9-1.664-2.677-.732-.916,2.4-.317,2.3,1.832-.632,2.008-.366.965.775,1.2.371-.218-1.569-.218-1.569" transform="translate(-377.272 -890.138)" fill="#ffb27d"/>
              <path id="Path_23772" data-name="Path 23772" d="M450.619,954.878a11.015,11.015,0,0,0,.636,1.759,43.377,43.377,0,0,0,7.25-6.551,9.37,9.37,0,0,1-4.529-1.67c-1.262,2.609-3.357,6.462-3.357,6.462" transform="translate(-401.193 -844.389)" fill="#ffb27d"/>
              <path id="Path_23773" data-name="Path 23773" d="M325.18,773.571a1.294,1.294,0,0,0-.718.819s2.243,2.18,3.711,2.213Z" transform="translate(-288.874 -688.722)" fill="#2b478b"/>
              <path id="Path_23774" data-name="Path 23774" d="M358.292,775.708l2.9-3.142a1.279,1.279,0,0,1,.589.983s-2.239,2.242-3.484,2.159" transform="translate(-318.993 -687.827)" fill="#2b478b"/>
              <path id="Path_23775" data-name="Path 23775" d="M340.521,798.98s-2.21,18.022-1.44,20.218a14.655,14.655,0,0,0,1.348,2.792.807.807,0,0,0,1.356,0,8.613,8.613,0,0,0,1.354-3.062c0-1.145-1.677-19.961-1.677-19.961Z" transform="translate(-301.744 -711.33)" fill="#2b478b"/>
              <path id="Path_23776" data-name="Path 23776" d="M346.8,790.452a14.724,14.724,0,0,1,2.148-.048.212.212,0,0,1,.173.316c-.228.388-.693,1.06-1.179,1.06-.683,0-1.748-1.282-1.142-1.327" transform="translate(-308.603 -703.686)" fill="#2b478b"/>
              <path id="Path_23777" data-name="Path 23777" d="M348.416,735.358a1.511,1.511,0,0,0,1.163.522,1.4,1.4,0,0,0,1.087-.522,7.8,7.8,0,0,0-2.25,0" transform="translate(-310.2 -654.624)" fill="#fff"/>
              <rect id="Rectangle_3679" data-name="Rectangle 3679" width="92.614" height="98.626" transform="translate(111.06 47.413)" fill="#cfdeff"/>
              <path id="Path_23778" data-name="Path 23778" d="M1474.193,1170.758h-17.647a.027.027,0,0,1-.027-.027v-1.091a.027.027,0,0,1,.027-.027h17.647a.027.027,0,0,1,.027.027v1.091a.027.027,0,0,1-.027.027" transform="translate(-1296.761 -1041.325)" fill="#2b478b"/>
              <path id="Path_23779" data-name="Path 23779" d="M1478.58,1147.023h-22.034a.026.026,0,0,1-.026-.026V1145.9a.026.026,0,0,1,.026-.026h22.034a.026.026,0,0,1,.026.026V1147a.026.026,0,0,1-.026.026" transform="translate(-1296.762 -1020.193)" fill="#2b478b"/>
              <rect id="Rectangle_3680" data-name="Rectangle 3680" width="76.547" height="53.856" transform="translate(119.094 64.068)" fill="#aec3ff"/>
              <rect id="Rectangle_3681" data-name="Rectangle 3681" width="0.123" height="56.895" transform="translate(137.043 61.028)" fill="#1f1f89"/>
              <rect id="Rectangle_3682" data-name="Rectangle 3682" width="0.123" height="56.895" transform="translate(184.976 61.028)" fill="#1f1f89"/>
              <rect id="Rectangle_3683" data-name="Rectangle 3683" width="0.123" height="56.895" transform="translate(145.183 61.028)" fill="#1f1f89"/>
              <rect id="Rectangle_3684" data-name="Rectangle 3684" width="76.547" height="0.123" transform="translate(119.094 107.847)" fill="#1f1f89"/>
              <rect id="Rectangle_3685" data-name="Rectangle 3685" width="76.547" height="0.123" transform="translate(119.094 96.576)" fill="#1f1f89"/>
              <rect id="Rectangle_3686" data-name="Rectangle 3686" width="76.547" height="0.123" transform="translate(119.094 85.305)" fill="#1f1f89"/>
              <rect id="Rectangle_3687" data-name="Rectangle 3687" width="76.547" height="0.123" transform="translate(119.094 74.034)" fill="#1f1f89"/>
              <rect id="Rectangle_3688" data-name="Rectangle 3688" width="76.547" height="10.929" transform="translate(119.094 54.329)" fill="#f78248"/>
              <path id="Path_23780" data-name="Path 23780" d="M1653.4,1161.267a13.5,13.5,0,0,1-4.733.7c-2.018-.159-3.154-1.157-3.2-2.812a4.152,4.152,0,0,1,1.672-3.394c-.011-.09-.02-.179-.027-.269-.074-.926.135-1.541.622-1.828.788-.464,1.958.171,2.008.2l-.262.423c-.262-.144-1.041-.461-1.472-.205-.371.22-.416.825-.383,1.318a11.324,11.324,0,0,1,3.588-1.516,20.251,20.251,0,0,1,3.38-.546,2.908,2.908,0,0,1,.029-.3c.036-.227.119-.493.356-.547a.4.4,0,0,1,.418.207,1.127,1.127,0,0,1,.159.594c.376-.008.725,0,1.034.019l.009-.019a5.3,5.3,0,0,1,.08-1.7c.131-.567.346-.854.648-.881a.4.4,0,0,1,.411.24,4.374,4.374,0,0,1-.606,2.418v.005c.43.069.721.181.813.338a.352.352,0,0,1-.1.459.638.638,0,0,1-.758.154.714.714,0,0,1-.278-.3,5.124,5.124,0,0,1-1.021,1.436.534.534,0,0,1-.6.083.562.562,0,0,1-.131-.1,6.584,6.584,0,0,1-.395.771c-.542.9-1.153,1.361-1.766,1.334a1.029,1.029,0,0,1-.661-.277,8.988,8.988,0,0,1-1.189,1.846,1.436,1.436,0,0,1-1.548.518c-1.005-.3-1.915-1.67-2.255-3.3a3.572,3.572,0,0,0-1.248,2.811c.039,1.411.955,2.2,2.724,2.337,4.465.351,12.293-3.569,12.886-6.454-.483,2.345-4.2,5.018-8.2,6.242m-5.71-5.311c.272,1.717,1.182,2.978,1.954,3.206a.909.909,0,0,0,.991-.359,8.329,8.329,0,0,0,1.248-2.015,2.866,2.866,0,0,1-.216-.639,4.352,4.352,0,0,1,0-1.875,13.618,13.618,0,0,0-2.444.8,8.1,8.1,0,0,0-1.536.878m4.766.8a.6.6,0,0,0,.456.293c.392.016.864-.379,1.292-1.087a6.294,6.294,0,0,0,.535-1.141,4.579,4.579,0,0,1-.146-1c-.574.044-1.2.117-1.846.227a3.5,3.5,0,0,1-.291,2.7m2.823-1.926c.081.23.153.275.154.275a4.584,4.584,0,0,0,.921-1.324c-.246-.009-.523-.01-.825,0a5.647,5.647,0,0,1-.25,1.052m-3.042-.629a3.547,3.547,0,0,0-.066,1.83,2.287,2.287,0,0,0,.066-1.83m5.1-.312h0m-.077-2.512a2.9,2.9,0,0,0-.123.512,3.567,3.567,0,0,0,.123-.512" transform="translate(-1464.982 -1024.486)" fill="#f77d48"/>
            </g>
          </g>
          <text id="Quotation" transform="translate(123.119 60.699)" fill="#fff" font-size="6" font-family="Poppins-Medium, Poppins" font-weight="500"><tspan x="0" y="0">Quotation</tspan></text>
          <g id="Group_11538" data-name="Group 11538" transform="translate(0 0)">
            <g id="Group_11537" data-name="Group 11537" clip-path="url(#clip-path-3)">
              <path id="Path_23781" data-name="Path 23781" d="M616.19,1067.186l-39.123-.243a3.158,3.158,0,0,1-3.138-3.177l.256-41.12a3.158,3.158,0,0,1,3.177-3.138l39.123.243a3.158,3.158,0,0,1,3.138,3.177l-.256,41.12a3.158,3.158,0,0,1-3.177,3.138" transform="translate(-510.978 -907.683)" fill="#f77d48"/>
              <path id="Path_23782" data-name="Path 23782" d="M638.38,1056.814l-37.481-.233a1.389,1.389,0,0,1-1.38-1.4l.03-4.759a1.389,1.389,0,0,1,1.4-1.38l37.481.233a1.389,1.389,0,0,1,1.38,1.4l-.03,4.759a1.389,1.389,0,0,1-1.4,1.38" transform="translate(-533.761 -933.981)" fill="#aec3ff"/>
              <path id="Path_23783" data-name="Path 23783" d="M688.667,1237.183l-3.209-.02a1.452,1.452,0,0,1-1.443-1.461l.02-3.209a1.452,1.452,0,0,1,1.461-1.443l3.209.02a1.452,1.452,0,0,1,1.443,1.461l-.02,3.209a1.452,1.452,0,0,1-1.461,1.443" transform="translate(-608.99 -1096.023)" fill="#2b478b"/>
              <path id="Path_23784" data-name="Path 23784" d="M688.242,1305.569l-3.209-.02a1.451,1.451,0,0,1-1.443-1.461l.02-3.209a1.452,1.452,0,0,1,1.461-1.443l3.209.02a1.452,1.452,0,0,1,1.443,1.461l-.02,3.209a1.452,1.452,0,0,1-1.461,1.443" transform="translate(-608.611 -1156.909)" fill="#2b478b"/>
              <path id="Path_23785" data-name="Path 23785" d="M687.818,1373.956l-3.209-.02a1.452,1.452,0,0,1-1.443-1.461l.02-3.209a1.451,1.451,0,0,1,1.461-1.443l3.209.02a1.452,1.452,0,0,1,1.443,1.461l-.02,3.209a1.452,1.452,0,0,1-1.461,1.443" transform="translate(-608.233 -1217.795)" fill="#2b478b"/>
              <path id="Path_23786" data-name="Path 23786" d="M762.314,1237.641l-3.209-.02a1.452,1.452,0,0,1-1.443-1.461l.02-3.209a1.452,1.452,0,0,1,1.461-1.443l3.209.02a1.452,1.452,0,0,1,1.443,1.461l-.02,3.209a1.452,1.452,0,0,1-1.461,1.443" transform="translate(-674.559 -1096.431)" fill="#2b478b"/>
              <path id="Path_23787" data-name="Path 23787" d="M761.889,1306.028l-3.209-.02a1.452,1.452,0,0,1-1.443-1.461l.02-3.209a1.452,1.452,0,0,1,1.461-1.443l3.209.02a1.452,1.452,0,0,1,1.443,1.461l-.02,3.209a1.452,1.452,0,0,1-1.461,1.443" transform="translate(-674.18 -1157.317)" fill="#2b478b"/>
              <path id="Path_23788" data-name="Path 23788" d="M761.464,1374.414l-3.209-.02a1.451,1.451,0,0,1-1.443-1.461l.02-3.209a1.452,1.452,0,0,1,1.461-1.443l3.209.02a1.451,1.451,0,0,1,1.443,1.461l-.02,3.209a1.452,1.452,0,0,1-1.461,1.443" transform="translate(-673.802 -1218.202)" fill="#2b478b"/>
              <path id="Path_23789" data-name="Path 23789" d="M832.906,1306.47l-3.209-.02a1.452,1.452,0,0,1-1.443-1.461l.02-3.209a1.452,1.452,0,0,1,1.461-1.443l3.209.02a1.452,1.452,0,0,1,1.443,1.461l-.02,3.209a1.452,1.452,0,0,1-1.461,1.443" transform="translate(-737.407 -1157.711)" fill="#2b478b"/>
              <path id="Path_23790" data-name="Path 23790" d="M832.481,1374.855l-3.209-.02a1.452,1.452,0,0,1-1.443-1.461l.02-3.209a1.452,1.452,0,0,1,1.461-1.443l3.209.02a1.452,1.452,0,0,1,1.443,1.461l-.02,3.209a1.452,1.452,0,0,1-1.461,1.443" transform="translate(-737.029 -1218.595)" fill="#2b478b"/>
              <path id="Path_23791" data-name="Path 23791" d="M618.807,1167.054l-3.209-.02a1.452,1.452,0,0,1-1.443-1.461l.012-1.9a1.452,1.452,0,0,1,1.461-1.443l3.209.02a1.452,1.452,0,0,1,1.443,1.461l-.012,1.9a1.452,1.452,0,0,1-1.461,1.443" transform="translate(-546.792 -1034.749)" fill="#f99746"/>
              <path id="Path_23792" data-name="Path 23792" d="M618.362,1238.758l-3.209-.02a1.452,1.452,0,0,1-1.443-1.461l.012-1.9a1.452,1.452,0,0,1,1.461-1.443l3.209.02a1.452,1.452,0,0,1,1.443,1.461l-.012,1.9a1.452,1.452,0,0,1-1.461,1.443" transform="translate(-546.395 -1098.588)" fill="#f99746"/>
              <path id="Path_23793" data-name="Path 23793" d="M617.915,1310.462l-3.209-.02a1.451,1.451,0,0,1-1.443-1.461l.012-1.9a1.452,1.452,0,0,1,1.461-1.443l3.209.02a1.452,1.452,0,0,1,1.443,1.461l-.012,1.9a1.452,1.452,0,0,1-1.461,1.443" transform="translate(-545.998 -1162.428)" fill="#f99746"/>
              <path id="Path_23794" data-name="Path 23794" d="M617.47,1382.167l-3.209-.02a1.452,1.452,0,0,1-1.443-1.461l.012-1.9a1.452,1.452,0,0,1,1.461-1.443l3.209.02a1.452,1.452,0,0,1,1.443,1.461l-.012,1.9a1.452,1.452,0,0,1-1.461,1.443" transform="translate(-545.601 -1226.267)" fill="#f99746"/>
              <path id="Path_23795" data-name="Path 23795" d="M689.092,1168.8l-3.209-.02a1.452,1.452,0,0,1-1.443-1.461l.02-3.209a1.452,1.452,0,0,1,1.461-1.443l3.209.02a1.452,1.452,0,0,1,1.443,1.461l-.02,3.209a1.452,1.452,0,0,1-1.461,1.443" transform="translate(-609.368 -1035.138)" fill="#f99746"/>
              <path id="Path_23796" data-name="Path 23796" d="M762.74,1169.255l-3.209-.02a1.452,1.452,0,0,1-1.443-1.461l.02-3.209a1.452,1.452,0,0,1,1.461-1.443l3.209.02a1.452,1.452,0,0,1,1.443,1.461l-.02,3.209a1.452,1.452,0,0,1-1.461,1.443" transform="translate(-674.937 -1035.546)" fill="#f99746"/>
              <path id="Path_23797" data-name="Path 23797" d="M833.757,1169.7l-3.209-.02a1.452,1.452,0,0,1-1.443-1.461l.02-3.209a1.452,1.452,0,0,1,1.461-1.443l3.209.02a1.452,1.452,0,0,1,1.443,1.461l-.02,3.209a1.452,1.452,0,0,1-1.461,1.443" transform="translate(-738.165 -1035.939)" fill="#f99746"/>
              <path id="Path_23798" data-name="Path 23798" d="M900.072,1238.827l-3.209-.02a1.452,1.452,0,0,1-1.443-1.461l.02-3.209a1.452,1.452,0,0,1,1.461-1.443l3.209.02a1.452,1.452,0,0,1,1.443,1.461l-.02,3.209a1.452,1.452,0,0,1-1.461,1.443" transform="translate(-797.206 -1097.487)" fill="#f99746"/>
              <path id="Path_23799" data-name="Path 23799" d="M900.5,1170.44l-3.209-.02a1.452,1.452,0,0,1-1.443-1.461l.02-3.209a1.452,1.452,0,0,1,1.461-1.443l3.209.02a1.452,1.452,0,0,1,1.443,1.461l-.02,3.209a1.452,1.452,0,0,1-1.461,1.443" transform="translate(-797.584 -1036.601)" fill="#f99746"/>
              <path id="Path_23800" data-name="Path 23800" d="M899.22,1314.713l-3.209-.02a1.452,1.452,0,0,1-1.443-1.461l.067-10.71a1.452,1.452,0,0,1,1.461-1.443l3.209.02a1.452,1.452,0,0,1,1.443,1.461l-.067,10.71a1.452,1.452,0,0,1-1.461,1.443" transform="translate(-796.448 -1158.371)" fill="#f99746"/>
              <path id="Path_23801" data-name="Path 23801" d="M719.3,1072l.006-1.028.149-.391a.314.314,0,0,1,.243.246l-.009,1.371-.1.1Zm.291.393.1.1-.009,1.371a.314.314,0,0,1-.246.243l-.144-.392.006-1.028Z" transform="translate(-640.398 -953.154)" fill="#2b478b"/>
              <path id="Path_23802" data-name="Path 23802" d="M731.744,1071.151l-.006.93-.3.292-.1-.1.008-1.272Zm-.408,2.69.008-1.273.1-.1.292.3-.006.93Zm1.711.353-1.468-.009a.314.314,0,0,1-.243-.246l.393-.144,1.175.007Zm-.127-3.134-1.17-.007-.391-.149a.314.314,0,0,1,.246-.243l1.464.009Zm.092,1.029.006-1.028.149-.391a.314.314,0,0,1,.243.246l-.008,1.371-.1.1Zm.291.393.1.1-.008,1.37a.315.315,0,0,1-.246.243L733,1073.8l.006-1.028Z" transform="translate(-651.119 -953.226)" fill="#2b478b"/>
              <path id="Path_23803" data-name="Path 23803" d="M758.968,1071.32l-.006.93-.3.292-.1-.1.008-1.272Zm-.408,2.69.008-1.273.1-.1.292.3-.006.93Zm1.711.353-1.468-.009a.314.314,0,0,1-.243-.246l.393-.144,1.175.007Zm-.127-3.134-1.17-.007-.391-.149a.314.314,0,0,1,.246-.243l1.464.009Zm.091,1.029.006-1.028.149-.391a.315.315,0,0,1,.243.246l-.009,1.371-.1.1Zm.291.393.1.1-.008,1.371a.314.314,0,0,1-.246.243l-.144-.392.006-1.028Z" transform="translate(-675.357 -953.376)" fill="#2b478b"/>
              <path id="Path_23804" data-name="Path 23804" d="M786.192,1071.49l-.006.93-.3.292-.1-.1.008-1.273Zm-.408,2.69.008-1.273.1-.1.292.3-.006.93Zm1.711.353-1.468-.009a.314.314,0,0,1-.243-.246l.392-.144,1.175.007Zm-.127-3.134-1.17-.007-.391-.149a.314.314,0,0,1,.246-.243l1.464.009Zm.092,1.029.006-1.028.149-.391a.314.314,0,0,1,.243.246l-.008,1.371-.1.1Zm.291.393.1.1-.009,1.371a.314.314,0,0,1-.246.243l-.144-.392.006-1.028Z" transform="translate(-699.595 -953.528)" fill="#2b478b"/>
              <path id="Path_23805" data-name="Path 23805" d="M813.416,1071.659l-.006.93-.3.292-.1-.1.008-1.273Zm-.409,2.69.008-1.273.1-.1.292.3-.006.93Zm1.711.353-1.468-.009a.314.314,0,0,1-.243-.246l.393-.144,1.175.007Zm-.127-3.134-1.17-.007-.391-.149a.314.314,0,0,1,.246-.243l1.464.009Zm.091,1.029.006-1.028.149-.391a.314.314,0,0,1,.243.246l-.008,1.371-.1.1Zm.291.393.1.1-.008,1.37a.315.315,0,0,1-.246.243l-.144-.393.006-1.028Z" transform="translate(-723.833 -953.678)" fill="#2b478b"/>
              <path id="Path_23806" data-name="Path 23806" d="M840.64,1071.828l-.006.93-.3.292-.1-.1.008-1.273Zm-.408,2.69.008-1.273.1-.1.292.3-.006.93Zm1.711.353-1.469-.009a.313.313,0,0,1-.243-.246l.392-.144,1.175.007Zm-.127-3.134-1.17-.007-.391-.149a.314.314,0,0,1,.246-.243l1.464.009Zm.091,1.029.006-1.028.149-.391a.315.315,0,0,1,.243.246l-.009,1.371-.1.1Zm.291.393.1.1-.008,1.371a.315.315,0,0,1-.246.243l-.144-.393.006-1.028Z" transform="translate(-748.071 -953.829)" fill="#2b478b"/>
              <path id="Path_23807" data-name="Path 23807" d="M867.864,1072l-.006.93-.3.292-.1-.1.008-1.273Zm-.409,2.69.008-1.273.1-.1.292.3-.006.93Zm1.711.353-1.468-.009a.313.313,0,0,1-.243-.246l.393-.144,1.175.007Zm-.127-3.134-1.17-.007-.391-.149a.314.314,0,0,1,.246-.243l1.464.009Zm.091,1.029.006-1.028.149-.391a.315.315,0,0,1,.243.247l-.009,1.371-.1.1Zm.291.393.1.1-.009,1.371a.315.315,0,0,1-.246.243l-.144-.392.006-1.028Z" transform="translate(-772.309 -953.98)" fill="#2b478b"/>
              <path id="Path_23808" data-name="Path 23808" d="M895.087,1072.167l-.006.93-.3.292-.1-.1.008-1.273Zm-.408,2.69.008-1.273.1-.1.292.3-.006.93Zm1.711.353-1.469-.009a.314.314,0,0,1-.243-.246l.393-.144,1.175.007Zm-.127-3.134-1.17-.007-.391-.149a.315.315,0,0,1,.246-.243l1.464.009Zm.091,1.029.006-1.028.149-.391a.314.314,0,0,1,.243.246l-.009,1.371-.1.1Zm.291.393.1.1-.008,1.371a.315.315,0,0,1-.246.243l-.144-.393.006-1.028Z" transform="translate(-796.546 -954.131)" fill="#2b478b"/>
              <path id="Path_23809" data-name="Path 23809" d="M922.311,1072.336l-.006.93-.3.292-.1-.1.008-1.272Zm-.408,2.69.008-1.273.1-.1.292.3-.006.93Zm1.711.353-1.469-.009a.314.314,0,0,1-.243-.246l.393-.144,1.175.007Zm-.127-3.134-1.17-.007-.391-.149a.314.314,0,0,1,.246-.243l1.464.009Zm.092,1.029.006-1.028.149-.391a.315.315,0,0,1,.243.246l-.009,1.371-.1.1Zm.291.393.1.1-.008,1.371a.314.314,0,0,1-.246.243l-.144-.392.006-1.028Z" transform="translate(-820.784 -954.281)" fill="#2b478b"/>
              <path id="Path_23810" data-name="Path 23810" d="M1056.234,1427.633v1.592a.543.543,0,0,1-.125.343.73.73,0,0,1-.342.229.706.706,0,0,1-.134.032.837.837,0,0,1-.129.009h-30.2a.707.707,0,0,1-.723-.522c0-.02-.006-.04-.007-.06s0-.021,0-.031v-1.592c0-.01,0-.021,0-.031a.6.6,0,0,1,.007-.06.707.707,0,0,1,.723-.522h30.2a.852.852,0,0,1,.129.009.8.8,0,0,1,.134.032.726.726,0,0,1,.342.229.542.542,0,0,1,.125.342" transform="translate(-912.196 -1270.498)" fill="#ffb93e"/>
              <path id="Path_23811" data-name="Path 23811" d="M1041.406,1429.839h-16.177a.647.647,0,0,1-.627-.454.585.585,0,0,1-.018-.068.6.6,0,0,1-.007-.061c0-.01,0-.021,0-.031v-1.592c0-.01,0-.021,0-.031a.6.6,0,0,1,.007-.06.583.583,0,0,1,.018-.068.647.647,0,0,1,.627-.454h14.191a4.939,4.939,0,0,0,1.987,2.818" transform="translate(-912.196 -1270.498)" fill="#ffa412"/>
              <rect id="Rectangle_3690" data-name="Rectangle 3690" width="0.343" height="2.819" transform="translate(140.02 156.522)" fill="#ffa412"/>
              <rect id="Rectangle_3691" data-name="Rectangle 3691" width="0.343" height="2.819" transform="translate(138.858 156.522)" fill="#ffa412"/>
              <rect id="Rectangle_3692" data-name="Rectangle 3692" width="0.343" height="2.819" transform="translate(137.465 156.522)" fill="#ffa412"/>
              <rect id="Rectangle_3693" data-name="Rectangle 3693" width="0.343" height="2.819" transform="translate(135.33 156.522)" fill="#ffa412"/>
              <rect id="Rectangle_3694" data-name="Rectangle 3694" width="0.343" height="2.819" transform="translate(133.072 156.522)" fill="#ffa412"/>
              <rect id="Rectangle_3695" data-name="Rectangle 3695" width="0.343" height="2.819" transform="translate(129.61 156.522)" fill="#ffa412"/>
              <rect id="Rectangle_3696" data-name="Rectangle 3696" width="0.343" height="2.819" transform="translate(126.369 156.522)" fill="#ffa412"/>
              <rect id="Rectangle_3697" data-name="Rectangle 3697" width="0.343" height="2.819" transform="translate(123.475 156.522)" fill="#ffa412"/>
              <rect id="Rectangle_3698" data-name="Rectangle 3698" width="0.343" height="2.819" transform="translate(141.126 156.522)" fill="#ffa412"/>
              <rect id="Rectangle_3699" data-name="Rectangle 3699" width="0.343" height="2.819" transform="translate(141.856 156.522)" fill="#ffa412"/>
              <rect id="Rectangle_3700" data-name="Rectangle 3700" width="0.343" height="2.819" transform="translate(142.562 156.522)" fill="#ffa412"/>
              <path id="Path_23812" data-name="Path 23812" d="M1304.925,1427.028v2.8a.846.846,0,0,1-.129.01h-.214v-2.819h.214a.862.862,0,0,1,.129.01" transform="translate(-1161.49 -1270.496)" fill="#ffa412"/>
              <path id="Path_23813" data-name="Path 23813" d="M1309.274,1427.625v2.277a.731.731,0,0,1-.343.229V1427.4a.73.73,0,0,1,.343.23" transform="translate(-1165.361 -1270.832)" fill="#ffa412"/>
              <path id="Path_23814" data-name="Path 23814" d="M1026.8,1401.928v1.591a.55.55,0,0,1-.125.344.715.715,0,0,1-.069.073.784.784,0,0,1-.408.188.853.853,0,0,1-.128.01h-30.2a.707.707,0,0,1-.722-.523c0-.02-.006-.04-.007-.06s0-.021,0-.032v-1.591c0-.011,0-.022,0-.032s0-.039.007-.059a.707.707,0,0,1,.722-.523h30.2a.534.534,0,0,1,.058,0l.021,0h0l.027,0,.019,0a.752.752,0,0,1,.134.031c.025.009.05.018.073.028h0l.047.023.026.015a.192.192,0,0,1,.025.015.549.549,0,0,1,.089.065c.009.008.017.016.026.024l.015.014.008.008.007.007a.262.262,0,0,1,.027.031.546.546,0,0,1,.125.343" transform="translate(-885.996 -1247.611)" fill="#ffb93e"/>
              <path id="Path_23815" data-name="Path 23815" d="M1011.976,1404.134H995.8a.647.647,0,0,1-.627-.455.508.508,0,0,1-.018-.068.57.57,0,0,1-.007-.059c0-.01,0-.021,0-.032v-1.591c0-.01,0-.022,0-.032a.576.576,0,0,1,.007-.059.511.511,0,0,1,.018-.067.647.647,0,0,1,.627-.455h14.191c.006.024.012.046.02.07a4.931,4.931,0,0,0,1.967,2.75" transform="translate(-885.995 -1247.611)" fill="#ffa412"/>
              <rect id="Rectangle_3701" data-name="Rectangle 3701" width="0.343" height="2.819" transform="translate(136.792 153.703)" fill="#ffa412"/>
              <rect id="Rectangle_3702" data-name="Rectangle 3702" width="0.343" height="2.819" transform="translate(135.63 153.703)" fill="#ffa412"/>
              <rect id="Rectangle_3703" data-name="Rectangle 3703" width="0.343" height="2.819" transform="translate(134.237 153.703)" fill="#ffa412"/>
              <rect id="Rectangle_3704" data-name="Rectangle 3704" width="0.343" height="2.819" transform="translate(132.101 153.703)" fill="#ffa412"/>
              <rect id="Rectangle_3705" data-name="Rectangle 3705" width="0.343" height="2.819" transform="translate(129.843 153.703)" fill="#ffa412"/>
              <rect id="Rectangle_3706" data-name="Rectangle 3706" width="0.343" height="2.819" transform="translate(126.382 153.703)" fill="#ffa412"/>
              <rect id="Rectangle_3707" data-name="Rectangle 3707" width="0.343" height="2.819" transform="translate(123.141 153.703)" fill="#ffa412"/>
              <rect id="Rectangle_3708" data-name="Rectangle 3708" width="0.343" height="2.819" transform="translate(120.246 153.703)" fill="#ffa412"/>
              <rect id="Rectangle_3709" data-name="Rectangle 3709" width="0.343" height="2.819" transform="translate(137.897 153.703)" fill="#ffa412"/>
              <rect id="Rectangle_3710" data-name="Rectangle 3710" width="0.343" height="2.819" transform="translate(138.628 153.703)" fill="#ffa412"/>
              <rect id="Rectangle_3711" data-name="Rectangle 3711" width="0.343" height="2.819" transform="translate(139.333 153.703)" fill="#ffa412"/>
              <path id="Path_23816" data-name="Path 23816" d="M1275.491,1401.327v2.8a.816.816,0,0,1-.129.01h-.214v-2.819h.214a.816.816,0,0,1,.129.01" transform="translate(-1135.284 -1247.614)" fill="#ffa412"/>
              <path id="Path_23817" data-name="Path 23817" d="M1279.839,1401.924v2.277a.725.725,0,0,1-.343.229v-2.736a.728.728,0,0,1,.343.23" transform="translate(-1139.155 -1247.95)" fill="#ffa412"/>
              <path id="Path_23818" data-name="Path 23818" d="M1041.027,1376.867v1.592a.543.543,0,0,1-.125.343.723.723,0,0,1-.342.229.837.837,0,0,1-.134.032.944.944,0,0,1-.128.01h-30.2a.838.838,0,0,1-.337-.07.636.636,0,0,1-.385-.445c0-.013,0-.026-.006-.04a.242.242,0,0,1,0-.027.3.3,0,0,1,0-.031v-1.592a.292.292,0,0,1,0-.031.4.4,0,0,1,.006-.06.706.706,0,0,1,.723-.522h30.2a.81.81,0,0,1,.128.009.776.776,0,0,1,.134.031.731.731,0,0,1,.342.23.542.542,0,0,1,.125.342" transform="translate(-898.659 -1225.3)" fill="#ffb93e"/>
              <path id="Path_23819" data-name="Path 23819" d="M1026.2,1379.073h-16.177a.672.672,0,0,1-.3-.07.618.618,0,0,1-.343-.445c0-.013,0-.026-.006-.04a.245.245,0,0,1,0-.027c0-.01,0-.021,0-.031v-1.592c0-.01,0-.021,0-.031a.4.4,0,0,1,.007-.059.549.549,0,0,1,.017-.066.646.646,0,0,1,.627-.457h14.191A4.949,4.949,0,0,0,1026.1,1379c.032.024.065.047.1.07" transform="translate(-898.659 -1225.301)" fill="#ffa412"/>
              <rect id="Rectangle_3712" data-name="Rectangle 3712" width="0.343" height="2.819" transform="translate(138.352 150.954)" fill="#ffa412"/>
              <rect id="Rectangle_3713" data-name="Rectangle 3713" width="0.343" height="2.819" transform="translate(137.19 150.954)" fill="#ffa412"/>
              <rect id="Rectangle_3714" data-name="Rectangle 3714" width="0.343" height="2.819" transform="translate(135.797 150.954)" fill="#ffa412"/>
              <rect id="Rectangle_3715" data-name="Rectangle 3715" width="0.343" height="2.819" transform="translate(133.662 150.954)" fill="#ffa412"/>
              <rect id="Rectangle_3716" data-name="Rectangle 3716" width="0.343" height="2.819" transform="translate(131.404 150.954)" fill="#ffa412"/>
              <rect id="Rectangle_3717" data-name="Rectangle 3717" width="0.343" height="2.819" transform="translate(127.942 150.954)" fill="#ffa412"/>
              <rect id="Rectangle_3718" data-name="Rectangle 3718" width="0.343" height="2.819" transform="translate(124.701 150.954)" fill="#ffa412"/>
              <rect id="Rectangle_3719" data-name="Rectangle 3719" width="0.343" height="2.819" transform="translate(121.807 150.954)" fill="#ffa412"/>
              <rect id="Rectangle_3720" data-name="Rectangle 3720" width="0.343" height="2.819" transform="translate(139.457 150.954)" fill="#ffa412"/>
              <rect id="Rectangle_3721" data-name="Rectangle 3721" width="0.343" height="2.819" transform="translate(140.188 150.954)" fill="#ffa412"/>
              <rect id="Rectangle_3722" data-name="Rectangle 3722" width="0.343" height="2.819" transform="translate(140.893 150.954)" fill="#ffa412"/>
              <path id="Path_23820" data-name="Path 23820" d="M1289.715,1376.26v2.8a.861.861,0,0,1-.129.01h-.214v-2.819h.214a.861.861,0,0,1,.129.01" transform="translate(-1147.948 -1225.297)" fill="#ffa412"/>
              <path id="Path_23821" data-name="Path 23821" d="M1294.064,1376.857v2.277a.73.73,0,0,1-.343.23v-2.736a.728.728,0,0,1,.343.23" transform="translate(-1151.82 -1225.632)" fill="#ffa412"/>
              <path id="Path_23822" data-name="Path 23822" d="M1047.625,1351.162v1.591a.54.54,0,0,1-.126.342c-.01.013-.022.026-.033.038a.706.706,0,0,1-.209.152.844.844,0,0,1-.1.041.774.774,0,0,1-.134.031l-.063.008c-.022,0-.044,0-.066,0h-30.2a.707.707,0,0,1-.724-.523c0-.02-.006-.04-.007-.059v-1.655a.674.674,0,0,1,.643-.577c.028,0,.057,0,.087,0h30.2l.066,0c.022,0,.042,0,.063.008a.786.786,0,0,1,.134.031.728.728,0,0,1,.342.229.544.544,0,0,1,.126.344" transform="translate(-904.532 -1202.414)" fill="#ffb93e"/>
              <path id="Path_23823" data-name="Path 23823" d="M1032.8,1353.368H1016.62a.648.648,0,0,1-.627-.455.531.531,0,0,1-.018-.067c0-.02-.006-.04-.007-.06v-1.655a.634.634,0,0,1,.574-.577.7.7,0,0,1,.077,0h14.191s0,0,0,0a4.946,4.946,0,0,0,1.986,2.815" transform="translate(-904.532 -1202.414)" fill="#ffa412"/>
              <rect id="Rectangle_3723" data-name="Rectangle 3723" width="0.343" height="2.819" transform="translate(139.075 148.135)" fill="#ffa412"/>
              <rect id="Rectangle_3724" data-name="Rectangle 3724" width="0.343" height="2.819" transform="translate(137.913 148.135)" fill="#ffa412"/>
              <rect id="Rectangle_3725" data-name="Rectangle 3725" width="0.343" height="2.819" transform="translate(136.52 148.135)" fill="#ffa412"/>
              <rect id="Rectangle_3726" data-name="Rectangle 3726" width="0.343" height="2.819" transform="translate(134.385 148.135)" fill="#ffa412"/>
              <rect id="Rectangle_3727" data-name="Rectangle 3727" width="0.343" height="2.819" transform="translate(132.127 148.135)" fill="#ffa412"/>
              <rect id="Rectangle_3728" data-name="Rectangle 3728" width="0.343" height="2.819" transform="translate(128.665 148.135)" fill="#ffa412"/>
              <rect id="Rectangle_3729" data-name="Rectangle 3729" width="0.343" height="2.819" transform="translate(125.424 148.135)" fill="#ffa412"/>
              <rect id="Rectangle_3730" data-name="Rectangle 3730" width="0.343" height="2.819" transform="translate(122.53 148.135)" fill="#ffa412"/>
              <rect id="Rectangle_3731" data-name="Rectangle 3731" width="0.343" height="2.819" transform="translate(140.181 148.135)" fill="#ffa412"/>
              <rect id="Rectangle_3732" data-name="Rectangle 3732" width="0.343" height="2.819" transform="translate(140.911 148.135)" fill="#ffa412"/>
              <rect id="Rectangle_3733" data-name="Rectangle 3733" width="0.343" height="2.819" transform="translate(141.617 148.135)" fill="#ffa412"/>
              <path id="Path_23824" data-name="Path 23824" d="M1296.31,1350.558v2.8a.814.814,0,0,1-.129.01h-.214v-2.819h.214a.86.86,0,0,1,.129.01" transform="translate(-1153.82 -1202.414)" fill="#ffa412"/>
              <path id="Path_23825" data-name="Path 23825" d="M1300.657,1351.156v2.277a.729.729,0,0,1-.343.23v-2.736a.727.727,0,0,1,.343.23" transform="translate(-1157.69 -1202.75)" fill="#ffa412"/>
              <path id="Path_23826" data-name="Path 23826" d="M1027.381,1325.5v1.591a.539.539,0,0,1-.125.342.72.72,0,0,1-.343.23.775.775,0,0,1-.133.031.294.294,0,0,1-.042.005h-.006l-.023,0-.02,0H996.455a.69.69,0,0,1-.73-.582c0-.01,0-.021,0-.032V1325.5c0-.01,0-.022,0-.032a.22.22,0,0,1,0-.026.66.66,0,0,1,.548-.537l.022,0a.873.873,0,0,1,.159-.015h30.2c.023,0,.043,0,.065,0l.027,0h0l.034,0a.787.787,0,0,1,.133.031.72.72,0,0,1,.343.23.539.539,0,0,1,.125.343" transform="translate(-886.509 -1179.566)" fill="#ffb93e"/>
              <path id="Path_23827" data-name="Path 23827" d="M1012.552,1327.706H996.376a.639.639,0,0,1-.652-.582c0-.01,0-.021,0-.032V1325.5c0-.01,0-.022,0-.032a.2.2,0,0,1,0-.026.629.629,0,0,1,.507-.541l.027-.006a.7.7,0,0,1,.116-.01h14.19l.006.021a4.941,4.941,0,0,0,1.974,2.794l.006,0" transform="translate(-886.508 -1179.566)" fill="#ffa412"/>
              <rect id="Rectangle_3734" data-name="Rectangle 3734" width="0.343" height="2.819" transform="translate(136.855 145.32)" fill="#ffa412"/>
              <rect id="Rectangle_3735" data-name="Rectangle 3735" width="0.343" height="2.819" transform="translate(135.693 145.32)" fill="#ffa412"/>
              <rect id="Rectangle_3736" data-name="Rectangle 3736" width="0.343" height="2.819" transform="translate(134.3 145.32)" fill="#ffa412"/>
              <rect id="Rectangle_3737" data-name="Rectangle 3737" width="0.343" height="2.819" transform="translate(132.165 145.32)" fill="#ffa412"/>
              <rect id="Rectangle_3738" data-name="Rectangle 3738" width="0.343" height="2.819" transform="translate(129.907 145.32)" fill="#ffa412"/>
              <rect id="Rectangle_3739" data-name="Rectangle 3739" width="0.343" height="2.819" transform="translate(126.445 145.32)" fill="#ffa412"/>
              <rect id="Rectangle_3740" data-name="Rectangle 3740" width="0.343" height="2.819" transform="translate(123.204 145.32)" fill="#ffa412"/>
              <rect id="Rectangle_3741" data-name="Rectangle 3741" width="0.343" height="2.819" transform="translate(120.31 145.32)" fill="#ffa412"/>
              <rect id="Rectangle_3742" data-name="Rectangle 3742" width="0.343" height="2.819" transform="translate(137.961 145.32)" fill="#ffa412"/>
              <rect id="Rectangle_3743" data-name="Rectangle 3743" width="0.343" height="2.819" transform="translate(138.691 145.32)" fill="#ffa412"/>
              <rect id="Rectangle_3744" data-name="Rectangle 3744" width="0.343" height="2.819" transform="translate(139.397 145.32)" fill="#ffa412"/>
              <path id="Path_23828" data-name="Path 23828" d="M1276.069,1324.9v2.8a.827.827,0,0,1-.129.01h-.214v-2.819h.214a.858.858,0,0,1,.129.01" transform="translate(-1135.799 -1179.568)" fill="#ffa412"/>
              <path id="Path_23829" data-name="Path 23829" d="M1280.418,1325.5v2.277a.727.727,0,0,1-.343.229v-2.736a.728.728,0,0,1,.343.23" transform="translate(-1139.671 -1179.905)" fill="#ffa412"/>
              <path id="Path_23830" data-name="Path 23830" d="M1026.8,1299.984v1.591a.546.546,0,0,1-.125.342.864.864,0,0,1-.069.074.757.757,0,0,1-.274.156.82.82,0,0,1-.1.026h0l-.027,0a.808.808,0,0,1-.128.01h-30.2a.844.844,0,0,1-.094-.006l-.036,0a.679.679,0,0,1-.593-.519.512.512,0,0,1-.006-.053c0-.011,0-.022,0-.032v-1.591c0-.011,0-.022,0-.032s0-.04.007-.059a.707.707,0,0,1,.722-.523h30.2l.058,0h.025l.027,0,.019,0a.785.785,0,0,1,.134.031c.025.008.05.018.073.028h0a.732.732,0,0,1,.242.17l.027.031a.549.549,0,0,1,.125.343" transform="translate(-885.996 -1156.849)" fill="#ffb93e"/>
              <path id="Path_23831" data-name="Path 23831" d="M1011.976,1302.191H995.761l-.042,0a.638.638,0,0,1-.566-.524.485.485,0,0,1-.006-.053c0-.011,0-.022,0-.032v-1.591c0-.011,0-.022,0-.032a.571.571,0,0,1,.007-.059.509.509,0,0,1,.018-.067.647.647,0,0,1,.627-.455h14.191c.006.024.012.046.02.07a4.932,4.932,0,0,0,1.938,2.729l.029.021" transform="translate(-885.995 -1156.85)" fill="#ffa412"/>
              <rect id="Rectangle_3745" data-name="Rectangle 3745" width="0.343" height="2.819" transform="translate(136.792 142.521)" fill="#ffa412"/>
              <rect id="Rectangle_3746" data-name="Rectangle 3746" width="0.343" height="2.819" transform="translate(135.63 142.521)" fill="#ffa412"/>
              <rect id="Rectangle_3747" data-name="Rectangle 3747" width="0.343" height="2.819" transform="translate(134.237 142.521)" fill="#ffa412"/>
              <rect id="Rectangle_3748" data-name="Rectangle 3748" width="0.343" height="2.819" transform="translate(132.101 142.521)" fill="#ffa412"/>
              <rect id="Rectangle_3749" data-name="Rectangle 3749" width="0.343" height="2.819" transform="translate(129.843 142.521)" fill="#ffa412"/>
              <rect id="Rectangle_3750" data-name="Rectangle 3750" width="0.343" height="2.819" transform="translate(126.382 142.521)" fill="#ffa412"/>
              <rect id="Rectangle_3751" data-name="Rectangle 3751" width="0.343" height="2.819" transform="translate(123.141 142.521)" fill="#ffa412"/>
              <rect id="Rectangle_3752" data-name="Rectangle 3752" width="0.343" height="2.819" transform="translate(120.246 142.521)" fill="#ffa412"/>
              <rect id="Rectangle_3753" data-name="Rectangle 3753" width="0.343" height="2.819" transform="translate(137.897 142.521)" fill="#ffa412"/>
              <rect id="Rectangle_3754" data-name="Rectangle 3754" width="0.343" height="2.819" transform="translate(138.628 142.521)" fill="#ffa412"/>
              <rect id="Rectangle_3755" data-name="Rectangle 3755" width="0.343" height="2.819" transform="translate(139.333 142.521)" fill="#ffa412"/>
              <path id="Path_23832" data-name="Path 23832" d="M1275.491,1299.381v2.8a.862.862,0,0,1-.129.01h-.214v-2.819h.214a.862.862,0,0,1,.129.01" transform="translate(-1135.284 -1156.85)" fill="#ffa412"/>
              <path id="Path_23833" data-name="Path 23833" d="M1279.839,1299.979v2.277a.725.725,0,0,1-.343.229v-2.736a.726.726,0,0,1,.343.229" transform="translate(-1139.155 -1157.187)" fill="#ffa412"/>
              <path id="Path_23834" data-name="Path 23834" d="M1041.027,1274.915v1.591a.542.542,0,0,1-.125.343.722.722,0,0,1-.342.229.764.764,0,0,1-.134.031.824.824,0,0,1-.128.01h-30.2a.84.84,0,0,1-.337-.07.637.637,0,0,1-.385-.445c0-.013,0-.026-.006-.04a.255.255,0,0,1,0-.027.306.306,0,0,1,0-.032v-1.591a.309.309,0,0,1,0-.032.408.408,0,0,1,.006-.06.707.707,0,0,1,.723-.523h30.2a.824.824,0,0,1,.128.01.776.776,0,0,1,.134.031.72.72,0,0,1,.342.23.54.54,0,0,1,.125.342" transform="translate(-898.659 -1134.53)" fill="#ffb93e"/>
              <path id="Path_23835" data-name="Path 23835" d="M1026.2,1277.12h-16.177a.672.672,0,0,1-.3-.07.618.618,0,0,1-.343-.445c0-.013,0-.026-.006-.04a.255.255,0,0,1,0-.027c0-.01,0-.021,0-.032v-1.591c0-.01,0-.022,0-.032a.408.408,0,0,1,.007-.06.536.536,0,0,1,.017-.065.647.647,0,0,1,.627-.457h14.191a4.947,4.947,0,0,0,1.888,2.75c.032.024.065.046.1.07" transform="translate(-898.659 -1134.53)" fill="#ffa412"/>
              <rect id="Rectangle_3756" data-name="Rectangle 3756" width="0.343" height="2.819" transform="translate(138.352 139.772)" fill="#ffa412"/>
              <rect id="Rectangle_3757" data-name="Rectangle 3757" width="0.343" height="2.819" transform="translate(137.19 139.772)" fill="#ffa412"/>
              <rect id="Rectangle_3758" data-name="Rectangle 3758" width="0.343" height="2.819" transform="translate(135.797 139.772)" fill="#ffa412"/>
              <rect id="Rectangle_3759" data-name="Rectangle 3759" width="0.343" height="2.819" transform="translate(133.662 139.772)" fill="#ffa412"/>
              <rect id="Rectangle_3760" data-name="Rectangle 3760" width="0.343" height="2.819" transform="translate(131.404 139.772)" fill="#ffa412"/>
              <rect id="Rectangle_3761" data-name="Rectangle 3761" width="0.343" height="2.819" transform="translate(127.942 139.772)" fill="#ffa412"/>
              <rect id="Rectangle_3762" data-name="Rectangle 3762" width="0.343" height="2.819" transform="translate(124.701 139.772)" fill="#ffa412"/>
              <rect id="Rectangle_3763" data-name="Rectangle 3763" width="0.343" height="2.819" transform="translate(121.807 139.772)" fill="#ffa412"/>
              <rect id="Rectangle_3764" data-name="Rectangle 3764" width="0.343" height="2.819" transform="translate(139.457 139.772)" fill="#ffa412"/>
              <rect id="Rectangle_3765" data-name="Rectangle 3765" width="0.343" height="2.819" transform="translate(140.188 139.772)" fill="#ffa412"/>
              <rect id="Rectangle_3766" data-name="Rectangle 3766" width="0.343" height="2.819" transform="translate(140.893 139.772)" fill="#ffa412"/>
              <path id="Path_23836" data-name="Path 23836" d="M1289.715,1274.315v2.8a.861.861,0,0,1-.129.01h-.214v-2.819h.214a.83.83,0,0,1,.129.01" transform="translate(-1147.948 -1134.533)" fill="#ffa412"/>
              <path id="Path_23837" data-name="Path 23837" d="M1294.064,1274.912v2.277a.73.73,0,0,1-.343.23v-2.736a.728.728,0,0,1,.343.229" transform="translate(-1151.82 -1134.869)" fill="#ffa412"/>
              <path id="Path_23838" data-name="Path 23838" d="M1063.526,1249.218v1.592a.546.546,0,0,1-.125.341h0c-.01.013-.022.026-.033.038a.686.686,0,0,1-.161.126.778.778,0,0,1-.1.046h0a.536.536,0,0,1-.051.019.749.749,0,0,1-.134.031.809.809,0,0,1-.128.01h-30.2a.706.706,0,0,1-.722-.521.38.38,0,0,1-.007-.06c0-.011,0-.021,0-.031v-1.592c0-.01,0-.021,0-.031a.673.673,0,0,1,.643-.577.645.645,0,0,1,.086,0h30.2a.943.943,0,0,1,.128.009.859.859,0,0,1,.134.032.744.744,0,0,1,.309.192c.011.012.022.025.033.038h0a.545.545,0,0,1,.125.341" transform="translate(-918.689 -1111.652)" fill="#ffb93e"/>
              <path id="Path_23839" data-name="Path 23839" d="M1048.7,1251.423h-16.177a.646.646,0,0,1-.627-.456.47.47,0,0,1-.017-.066.381.381,0,0,1-.007-.061c0-.01,0-.021,0-.031v-1.592c0-.01,0-.021,0-.031a.633.633,0,0,1,.573-.577.527.527,0,0,1,.077,0h14.191s0,0,0,0a4.939,4.939,0,0,0,1.986,2.814" transform="translate(-918.689 -1111.652)" fill="#ffa412"/>
              <rect id="Rectangle_3767" data-name="Rectangle 3767" width="0.343" height="2.819" transform="translate(140.819 136.953)" fill="#ffa412"/>
              <rect id="Rectangle_3768" data-name="Rectangle 3768" width="0.343" height="2.819" transform="translate(139.658 136.953)" fill="#ffa412"/>
              <rect id="Rectangle_3769" data-name="Rectangle 3769" width="0.343" height="2.819" transform="translate(138.265 136.953)" fill="#ffa412"/>
              <rect id="Rectangle_3770" data-name="Rectangle 3770" width="0.343" height="2.819" transform="translate(136.129 136.953)" fill="#ffa412"/>
              <rect id="Rectangle_3771" data-name="Rectangle 3771" width="0.343" height="2.819" transform="translate(133.871 136.953)" fill="#ffa412"/>
              <rect id="Rectangle_3772" data-name="Rectangle 3772" width="0.343" height="2.819" transform="translate(130.41 136.953)" fill="#ffa412"/>
              <rect id="Rectangle_3773" data-name="Rectangle 3773" width="0.343" height="2.819" transform="translate(127.169 136.953)" fill="#ffa412"/>
              <rect id="Rectangle_3774" data-name="Rectangle 3774" width="0.343" height="2.819" transform="translate(124.274 136.953)" fill="#ffa412"/>
              <rect id="Rectangle_3775" data-name="Rectangle 3775" width="0.343" height="2.819" transform="translate(141.925 136.953)" fill="#ffa412"/>
              <rect id="Rectangle_3776" data-name="Rectangle 3776" width="0.343" height="2.819" transform="translate(142.656 136.953)" fill="#ffa412"/>
              <rect id="Rectangle_3777" data-name="Rectangle 3777" width="0.343" height="2.819" transform="translate(143.361 136.953)" fill="#ffa412"/>
              <path id="Path_23840" data-name="Path 23840" d="M1312.213,1248.614v2.8a.859.859,0,0,1-.129.01h-.214V1248.6h.214a.828.828,0,0,1,.129.01" transform="translate(-1167.978 -1111.651)" fill="#ffa412"/>
              <path id="Path_23841" data-name="Path 23841" d="M1316.562,1249.211v2.277a.727.727,0,0,1-.343.229v-2.736a.729.729,0,0,1,.343.23" transform="translate(-1171.85 -1111.987)" fill="#ffa412"/>
              <path id="Path_23842" data-name="Path 23842" d="M1027.381,1223.557v1.592a.54.54,0,0,1-.125.342.72.72,0,0,1-.343.23.8.8,0,0,1-.133.031l-.042.005h-.006a.253.253,0,0,1-.028,0H996.455a.768.768,0,0,1-.622-.293.539.539,0,0,1-.108-.289c0-.011,0-.022,0-.032v-1.592c0-.011,0-.022,0-.032a.648.648,0,0,1,.518-.555.828.828,0,0,1,.212-.027h30.234l.019,0a.647.647,0,0,1,.072.007.8.8,0,0,1,.133.031.457.457,0,0,1,.062.024h0a.713.713,0,0,1,.211.133l0,0,.008.008a.582.582,0,0,1,.057.061.542.542,0,0,1,.125.343" transform="translate(-886.509 -1088.805)" fill="#ffb93e"/>
              <path id="Path_23843" data-name="Path 23843" d="M1012.552,1225.763H996.376a.664.664,0,0,1-.545-.278.579.579,0,0,1-.107-.3c0-.011,0-.022,0-.032v-1.591c0-.011,0-.022,0-.032a.629.629,0,0,1,.52-.569.68.68,0,0,1,.132-.013h14.19c.006.022.012.043.019.065a4.929,4.929,0,0,0,1.961,2.75l.006,0" transform="translate(-886.508 -1088.805)" fill="#ffa412"/>
              <rect id="Rectangle_3778" data-name="Rectangle 3778" width="0.343" height="2.819" transform="translate(136.855 134.138)" fill="#ffa412"/>
              <rect id="Rectangle_3779" data-name="Rectangle 3779" width="0.343" height="2.819" transform="translate(135.693 134.138)" fill="#ffa412"/>
              <rect id="Rectangle_3780" data-name="Rectangle 3780" width="0.343" height="2.819" transform="translate(134.3 134.138)" fill="#ffa412"/>
              <rect id="Rectangle_3781" data-name="Rectangle 3781" width="0.343" height="2.819" transform="translate(132.165 134.138)" fill="#ffa412"/>
              <rect id="Rectangle_3782" data-name="Rectangle 3782" width="0.343" height="2.819" transform="translate(129.907 134.138)" fill="#ffa412"/>
              <rect id="Rectangle_3783" data-name="Rectangle 3783" width="0.343" height="2.819" transform="translate(126.445 134.138)" fill="#ffa412"/>
              <rect id="Rectangle_3784" data-name="Rectangle 3784" width="0.343" height="2.819" transform="translate(123.204 134.138)" fill="#ffa412"/>
              <rect id="Rectangle_3785" data-name="Rectangle 3785" width="0.343" height="2.819" transform="translate(120.31 134.138)" fill="#ffa412"/>
              <rect id="Rectangle_3786" data-name="Rectangle 3786" width="0.343" height="2.819" transform="translate(137.961 134.138)" fill="#ffa412"/>
              <rect id="Rectangle_3787" data-name="Rectangle 3787" width="0.343" height="2.819" transform="translate(138.691 134.138)" fill="#ffa412"/>
              <rect id="Rectangle_3788" data-name="Rectangle 3788" width="0.343" height="2.819" transform="translate(139.397 134.138)" fill="#ffa412"/>
              <path id="Path_23844" data-name="Path 23844" d="M1276.069,1222.954v2.8a.813.813,0,0,1-.129.01h-.214v-2.819h.214a.842.842,0,0,1,.129.01" transform="translate(-1135.799 -1088.806)" fill="#ffa412"/>
              <path id="Path_23845" data-name="Path 23845" d="M1280.418,1223.551v2.277a.726.726,0,0,1-.343.229v-2.736a.728.728,0,0,1,.343.23" transform="translate(-1139.671 -1089.142)" fill="#ffa412"/>
              <path id="Path_23846" data-name="Path 23846" d="M1047.621,1198.45v1.592a.542.542,0,0,1-.125.343.724.724,0,0,1-.343.229.784.784,0,0,1-.133.032.864.864,0,0,1-.129.01h-30.2a.837.837,0,0,1-.326-.065.628.628,0,0,1-.4-.492c0-.008,0-.017,0-.025s0-.021,0-.032v-1.592c0-.01,0-.021,0-.031a.673.673,0,0,1,.643-.578.772.772,0,0,1,.086,0h30.2a.864.864,0,0,1,.129.01.8.8,0,0,1,.133.032.726.726,0,0,1,.343.229.542.542,0,0,1,.125.343" transform="translate(-904.529 -1066.452)" fill="#ffb93e"/>
              <path id="Path_23847" data-name="Path 23847" d="M1032.793,1200.656h-16.177a.677.677,0,0,1-.291-.065.617.617,0,0,1-.358-.492c0-.008,0-.017,0-.025s0-.021,0-.032v-1.592c0-.011,0-.021,0-.032a.633.633,0,0,1,.574-.577.616.616,0,0,1,.077,0h14.19v0a4.945,4.945,0,0,0,1.893,2.749l.093.065" transform="translate(-904.529 -1066.453)" fill="#ffa412"/>
              <rect id="Rectangle_3789" data-name="Rectangle 3789" width="0.343" height="2.819" transform="translate(139.075 131.384)" fill="#ffa412"/>
              <rect id="Rectangle_3790" data-name="Rectangle 3790" width="0.343" height="2.819" transform="translate(137.913 131.384)" fill="#ffa412"/>
              <rect id="Rectangle_3791" data-name="Rectangle 3791" width="0.343" height="2.819" transform="translate(136.52 131.384)" fill="#ffa412"/>
              <rect id="Rectangle_3792" data-name="Rectangle 3792" width="0.343" height="2.819" transform="translate(134.385 131.384)" fill="#ffa412"/>
              <rect id="Rectangle_3793" data-name="Rectangle 3793" width="0.343" height="2.819" transform="translate(132.127 131.384)" fill="#ffa412"/>
              <rect id="Rectangle_3794" data-name="Rectangle 3794" width="0.343" height="2.819" transform="translate(128.665 131.384)" fill="#ffa412"/>
              <rect id="Rectangle_3795" data-name="Rectangle 3795" width="0.343" height="2.819" transform="translate(125.424 131.384)" fill="#ffa412"/>
              <rect id="Rectangle_3796" data-name="Rectangle 3796" width="0.343" height="2.819" transform="translate(122.53 131.384)" fill="#ffa412"/>
              <rect id="Rectangle_3797" data-name="Rectangle 3797" width="0.343" height="2.819" transform="translate(140.181 131.384)" fill="#ffa412"/>
              <rect id="Rectangle_3798" data-name="Rectangle 3798" width="0.343" height="2.819" transform="translate(140.911 131.384)" fill="#ffa412"/>
              <rect id="Rectangle_3799" data-name="Rectangle 3799" width="0.343" height="2.819" transform="translate(141.617 131.384)" fill="#ffa412"/>
              <path id="Path_23848" data-name="Path 23848" d="M1296.31,1197.846v2.8a.86.86,0,0,1-.129.01h-.214v-2.819h.214a.844.844,0,0,1,.129.01" transform="translate(-1153.82 -1066.452)" fill="#ffa412"/>
              <path id="Path_23849" data-name="Path 23849" d="M1300.657,1198.443v2.277a.727.727,0,0,1-.343.23v-2.736a.727.727,0,0,1,.343.23" transform="translate(-1157.69 -1066.787)" fill="#ffa412"/>
              <path id="Path_23850" data-name="Path 23850" d="M1056.237,1172.79v1.592a.542.542,0,0,1-.125.343.727.727,0,0,1-.343.229.8.8,0,0,1-.134.031l-.042.005-.024,0h-30.258a.689.689,0,0,1-.73-.582c0-.01,0-.021,0-.031v-1.592c0-.011,0-.021,0-.032a.689.689,0,0,1,.73-.582h30.2a.863.863,0,0,1,.129.01.78.78,0,0,1,.134.032.724.724,0,0,1,.343.229.542.542,0,0,1,.125.343" transform="translate(-912.199 -1043.606)" fill="#ffb93e"/>
              <path id="Path_23851" data-name="Path 23851" d="M1041.409,1175h-16.177a.639.639,0,0,1-.651-.582c0-.01,0-.021,0-.031v-1.592c0-.011,0-.021,0-.032a.638.638,0,0,1,.651-.582h14.191a4.941,4.941,0,0,0,1.98,2.814l.006,0" transform="translate(-912.199 -1043.606)" fill="#ffa412"/>
              <rect id="Rectangle_3800" data-name="Rectangle 3800" width="0.343" height="2.819" transform="translate(140.02 128.57)" fill="#ffa412"/>
              <rect id="Rectangle_3801" data-name="Rectangle 3801" width="0.343" height="2.819" transform="translate(138.858 128.57)" fill="#ffa412"/>
              <rect id="Rectangle_3802" data-name="Rectangle 3802" width="0.343" height="2.819" transform="translate(137.465 128.57)" fill="#ffa412"/>
              <rect id="Rectangle_3803" data-name="Rectangle 3803" width="0.343" height="2.819" transform="translate(135.33 128.57)" fill="#ffa412"/>
              <rect id="Rectangle_3804" data-name="Rectangle 3804" width="0.343" height="2.819" transform="translate(133.072 128.57)" fill="#ffa412"/>
              <rect id="Rectangle_3805" data-name="Rectangle 3805" width="0.343" height="2.819" transform="translate(129.61 128.57)" fill="#ffa412"/>
              <rect id="Rectangle_3806" data-name="Rectangle 3806" width="0.343" height="2.819" transform="translate(126.369 128.57)" fill="#ffa412"/>
              <rect id="Rectangle_3807" data-name="Rectangle 3807" width="0.343" height="2.819" transform="translate(123.475 128.57)" fill="#ffa412"/>
              <rect id="Rectangle_3808" data-name="Rectangle 3808" width="0.343" height="2.819" transform="translate(141.126 128.57)" fill="#ffa412"/>
              <rect id="Rectangle_3809" data-name="Rectangle 3809" width="0.343" height="2.819" transform="translate(141.856 128.57)" fill="#ffa412"/>
              <rect id="Rectangle_3810" data-name="Rectangle 3810" width="0.343" height="2.819" transform="translate(142.562 128.57)" fill="#ffa412"/>
              <path id="Path_23852" data-name="Path 23852" d="M1304.926,1172.186v2.8a.826.826,0,0,1-.129.01h-.214v-2.819h.214a.857.857,0,0,1,.129.01" transform="translate(-1161.49 -1043.606)" fill="#ffa412"/>
              <path id="Path_23853" data-name="Path 23853" d="M1309.274,1172.783v2.277a.729.729,0,0,1-.343.23v-2.736a.727.727,0,0,1,.343.23" transform="translate(-1165.361 -1043.942)" fill="#ffa412"/>
              <path id="Path_23854" data-name="Path 23854" d="M1165.458,1001.178s-1.586,2.233-3.04,2.264a10.625,10.625,0,0,1-3.666-1.035s-1.335-2.975-.429-4.14a1.944,1.944,0,0,1,1.858.305,2.845,2.845,0,0,1,.492.471,1.56,1.56,0,0,0,.763.518c1.038.316,2.269-.427,2.73.29a4.864,4.864,0,0,0,.8.95,3.646,3.646,0,0,0,.491.378" transform="translate(-1030.992 -888.673)" fill="#ffeddc"/>
              <path id="Path_23855" data-name="Path 23855" d="M1037.426,1060.2s5.606-13.583,15.7-13.842c0,0,9.314,1.035,9.832,13.842Z" transform="translate(-923.636 -931.587)" fill="#ffeddc"/>
              <path id="Path_23856" data-name="Path 23856" d="M1155.165,1035.868s4.045.9,5.292.371a1.249,1.249,0,0,0-1.515-1.454,3.573,3.573,0,0,1-2.372-.625c-.632-.322-1.574,1-1.406,1.708" transform="translate(-1028.443 -920.684)" fill="#db6a1d"/>
              <path id="Path_23857" data-name="Path 23857" d="M1178.867,1004.7c-.259.194-1.053-2.735-1.053-2.735a2.87,2.87,0,0,1,.492.471,1.559,1.559,0,0,0,.763.518c0,.085.049,1.557-.2,1.746" transform="translate(-1048.626 -892.063)" fill="#e5c1a1"/>
              <path id="Path_23858" data-name="Path 23858" d="M1203.524,1014.566a16.656,16.656,0,0,1-2.181,1.154c-.259,0,1.379-2.1,1.379-2.1a4.87,4.87,0,0,0,.8.95" transform="translate(-1069.55 -902.438)" fill="#e5c1a1"/>
              <path id="Path_23859" data-name="Path 23859" d="M1087.338,1088.947c-.1-.089,3.967-5.994,5.088-6.037s3.64,1.294,5.464,1.466,3.592-.345,3.937.733,1.294,4.9.712,5.511-12.962.239-15.2-1.674" transform="translate(-968.072 -964.13)" fill="#f9ddbf"/>
              <g id="Group_11536" data-name="Group 11536" transform="translate(109.152 130.585)" opacity="0.5">
                <g id="Group_11535" data-name="Group 11535">
                  <g id="Group_11534" data-name="Group 11534" clip-path="url(#clip-path-6)">
                    <path id="Path_23860" data-name="Path 23860" d="M1009.1,1205.281c0,.008,0,.014,0,.021a13.511,13.511,0,0,1-.453,2.794.036.036,0,0,0,0,0q-.054.2-.114.4a13.8,13.8,0,0,1-1,2.419,14.013,14.013,0,0,1-1.9,2.749c-.02.024-.041.047-.061.07a14.549,14.549,0,0,1-3.317,2.75q-.4.245-.825.467c-.19.1-.382.194-.574.286s-.378.2-.561.31a7.846,7.846,0,0,1-1.919.79v-1.24c0-.01,0-.021,0-.031s0-.04.007-.06a.5.5,0,0,1,.018-.068.648.648,0,0,1,.627-.454H995.8a.647.647,0,0,1-.627-.456.492.492,0,0,1-.017-.067c0-.02-.006-.04-.007-.06s0-.021,0-.032v-1.591c0-.011,0-.022,0-.032s0-.04.007-.059a.505.505,0,0,1,.017-.067.648.648,0,0,1,.627-.455h1.26a.618.618,0,0,1-.343-.445c0-.013,0-.026-.006-.04a.212.212,0,0,1,0-.027c0-.01,0-.021,0-.031v-1.592c0-.01,0-.021,0-.031a.39.39,0,0,1,.007-.059.532.532,0,0,1,.017-.066.646.646,0,0,1,.627-.457h.724a.648.648,0,0,1-.628-.455.535.535,0,0,1-.018-.067c0-.02-.006-.04-.007-.06v-1.655a.634.634,0,0,1,.574-.577h-2.142a.639.639,0,0,1-.652-.582c0-.01,0-.021,0-.032V1205.9c0-.01,0-.022,0-.032a.218.218,0,0,1,0-.026.629.629,0,0,1,.506-.541.638.638,0,0,1-.566-.524.516.516,0,0,1-.006-.053c0-.011,0-.022,0-.032V1203.1c0-.011,0-.022,0-.032s0-.04.007-.06a.511.511,0,0,1,.017-.067.647.647,0,0,1,.627-.455h1.26a.618.618,0,0,1-.343-.445c0-.013,0-.026-.006-.04a.229.229,0,0,1,0-.028c0-.01,0-.021,0-.032v-1.591c0-.01,0-.022,0-.032a.408.408,0,0,1,.007-.06.514.514,0,0,1,.017-.065.647.647,0,0,1,.627-.457h2.468a.646.646,0,0,1-.627-.456.508.508,0,0,1-.017-.066.42.42,0,0,1-.007-.06.29.29,0,0,1,0-.031v-1.592a.29.29,0,0,1,0-.031.633.633,0,0,1,.573-.577h-3.886a.663.663,0,0,1-.545-.278l0-.014.409-2.5,0-.014.583-3.567a15.517,15.517,0,0,1,2,.4l.115.031.007,0q.573.16,1.131.363l.01,0a14.947,14.947,0,0,1,4.688,2.75c.025.021.049.042.073.065a14.119,14.119,0,0,1,1.966,2.118q.177.232.342.473c.037.053.074.105.109.159a0,0,0,0,1,0,0q.268.395.508.81a13.873,13.873,0,0,1,.955,2,13.393,13.393,0,0,1,.732,2.75c0,.023.008.046.011.07a13.449,13.449,0,0,1,.129,2.729" transform="translate(-995.148 -1190.546)" fill="#e2810e"/>
                  </g>
                </g>
              </g>
              <path id="Path_23861" data-name="Path 23861" d="M822.935,1198.213a14.852,14.852,0,1,1,20.177,5.837,14.853,14.853,0,0,1-20.177-5.837" transform="translate(-731.027 -1047.178)" fill="#e2810e"/>
              <path id="Path_23862" data-name="Path 23862" d="M833.324,1209.427q-.275.168-.558.324l-.192.1c-.146.078-.293.153-.44.226a14.853,14.853,0,0,1-13.708-26.345c.19-.1.382-.205.575-.3s.376-.182.566-.267a14.829,14.829,0,0,1,4.458-1.2,14.855,14.855,0,0,1,9.3,27.457" transform="translate(-721.815 -1052.253)" fill="#ffb93e"/>
              <path id="Path_23863" data-name="Path 23863" d="M838.9,1224.036a13.371,13.371,0,0,1-3.717-.531,13.225,13.225,0,1,1,3.717.531m-.041-26.262a12.948,12.948,0,1,0,11.362,6.7,12.869,12.869,0,0,0-11.362-6.7" transform="translate(-735.012 -1066.078)" fill="#ffa412"/>
              <path id="Path_23865" data-name="Path 23865" d="M819.657,593.845a.689.689,0,0,0-.118.738.005.005,0,0,0,0,0A4.581,4.581,0,0,0,821,596.165c.088.07.166.133.234.192l.053.046.04.036c.641.582.4.718,1.554,1.9,1.313,1.347,2.211,1.365,2.466,1.24.215-.107-.229-.823-.721-1.629l-.072-.117c-.065-.107-.131-.216-.2-.323-.577-.969-.434-1.427-.309-2.876.1-1.178,1.785-6.589,1.785-6.589l-2.5-.413s-.722,4.3-1.547,4.972c-.441.356-.937.364-1.361.629l-.088.057a3.278,3.278,0,0,0-.68.554" transform="translate(-729.599 -523.179)" fill="#ffb27d"/>
              <path id="Path_23866" data-name="Path 23866" d="M819.657,639.306a.689.689,0,0,0-.118.738,0,0,0,0,0,0,0A5.307,5.307,0,0,0,821,641.621c.087.071.163.136.231.2l.053.046.04.036c.641.582.4.718,1.554,1.9,1.313,1.347,2.211,1.366,2.466,1.24.215-.107-.229-.823-.721-1.628a5.556,5.556,0,0,1-2.336-1.7c-.792-1-1.325-2.28-1.865-3.022l-.088.057a3.28,3.28,0,0,0-.68.554" transform="translate(-729.599 -568.64)" fill="#233862"/>
              <path id="Path_23867" data-name="Path 23867" d="M988.142,585c.16.77,1.258.634,2.484.325s.937.05,2.684-.156,2.272-.861,2.323-1.122c.046-.231-.818-.306-1.746-.406l-.351-.039a7.565,7.565,0,0,1-2.772-1.341,11.1,11.1,0,0,1-2.262-2.649l-2.4.207s1.271,1.9,1.764,2.729a2.9,2.9,0,0,1,.247,1.632,3.067,3.067,0,0,0,.024.82" transform="translate(-877.946 -516.041)" fill="#ffb27d"/>
              <path id="Path_23868" data-name="Path 23868" d="M1006.823,618.034c1.226-.309.937.05,2.683-.156s2.272-.861,2.323-1.122c.046-.231-.818-.306-1.746-.406l-.008.018a4.927,4.927,0,0,1-2.5.8c-1.186.037-2.444-.294-3.263-.275a3.072,3.072,0,0,0,.024.82c.16.77,1.258.634,2.484.325" transform="translate(-894.143 -548.746)" fill="#233862"/>
              <path id="Path_23869" data-name="Path 23869" d="M853.9,458.565l-2.2,6.046-2.87,7.895a4.738,4.738,0,0,1-1.555-.131,6.738,6.738,0,0,1-1.509-.721s.753-8.46,2.234-13.324a8.643,8.643,0,0,1,1.284-2.83c2.33-2.793,4.615,3.065,4.615,3.065" transform="translate(-752.998 -404.866)" fill="#ed7d2b"/>
              <path id="Path_23870" data-name="Path 23870" d="M722.947,393.76c-1.472-.463-5.655.174-9.856,1.028l-.891-1.447-9.091-.645s-2.951,6.67-1.28,10.9c.246.621,1.759.923,1.76.924s5.326.058,7.082.046c4.519-.032,9.541-3.174,10.193-3.309,1.067-.221,1.509,1.912,2.593,4.148s10.11,9.862,10.11,9.862a7.894,7.894,0,0,0,1.947-.214,1.918,1.918,0,0,0,.833-.534s-10.081-19.709-13.4-20.754" transform="translate(-624.393 -349.623)" fill="#f99746"/>
              <path id="Path_23871" data-name="Path 23871" d="M670.839,151.191a3.222,3.222,0,0,0-1.75-.439,5.253,5.253,0,0,1-.868-.051c-3.446-.438-5.483,4.579-5.594,6.1-.2,2.8-1.68,3.232-3.748,5-4.147,3.538-2.895,7.607-.6,9.106,1.375.9,3.781-.027,3.781-.027.034.024,6.572-3.716,9.795-5.52,4.846-.724.945-13.016-1.012-14.162" transform="translate(-584.186 -134.148)" fill="#233862"/>
              <path id="Path_23872" data-name="Path 23872" d="M738.379,229.733a4.277,4.277,0,0,1-2.665.1,4.753,4.753,0,0,1-1.776-2.1c.459-.024.961-.43,1.331-3.069l.2.069,3.3,1.161s-.231,1.058-.378,2.064c-.124.845-.188,1.654-.007,1.772" transform="translate(-653.436 -200.024)" fill="#ffb27d"/>
              <path id="Path_23873" data-name="Path 23873" d="M751.164,226.456s-.141.741-.336,1.8a3.844,3.844,0,0,1-2.963-2.961Z" transform="translate(-665.836 -200.584)" fill="#ed975d"/>
              <path id="Path_23874" data-name="Path 23874" d="M748.94,181.206s-4.506-.573-4.107-3.373.087-4.761,2.982-4.514,3.3,1.4,3.393,2.363-1.086,5.6-2.268,5.525" transform="translate(-663.114 -154.289)" fill="#ffb27d"/>
              <path id="Path_23875" data-name="Path 23875" d="M740.447,172.114s-2.865,2.5-4.824,2.718a3.758,3.758,0,0,1-2.706-.41,7.654,7.654,0,0,0,1.833-2.521,1.378,1.378,0,0,1,1.131-.821c1.4-.131,4.052-.2,4.565,1.033" transform="translate(-652.528 -152.254)" fill="#233862"/>
              <path id="Path_23876" data-name="Path 23876" d="M785.123,174.716a7.1,7.1,0,0,1,1.279,1.615,5.45,5.45,0,0,1,.168,2.9s1.482-2.932.621-4.345a1.2,1.2,0,0,0-2.068-.166" transform="translate(-699.007 -155.066)" fill="#233862"/>
              <path id="Path_23877" data-name="Path 23877" d="M711.319,260.372c-.072,9.115.013,7.21-.977,8.081a3.828,3.828,0,0,1-1.8.4c-2.793.205-7.709-.22-7.9-.736-.657-1.782-.206-2.341-.763-5.073-.058-.29-.13-.6-.214-.947-.462-1.876-.9-2.512.667-5.542a23.559,23.559,0,0,1,3.042-4.9c3.822,2.233,4.116.331,4.116.331s3.866,3.931,3.831,8.377" transform="translate(-622.538 -224.058)" fill="#aec3ff"/>
              <path id="Path_23878" data-name="Path 23878" d="M851.7,493.708l-2.87,7.895a4.741,4.741,0,0,1-1.555-.131,6.744,6.744,0,0,1-1.508-.721s.753-8.46,2.234-13.324Z" transform="translate(-752.998 -433.963)" fill="#f99746"/>
              <path id="Path_23879" data-name="Path 23879" d="M774.5,254.7s3.921.636,4.393,2.32,3.248,11.577,3.248,11.577-1.989.372-2.915-.542-3.261-8.511-3.261-8.511Z" transform="translate(-689.547 -226.759)" fill="#aec3ff"/>
              <path id="Path_23880" data-name="Path 23880" d="M713.769,330.4c-2.793.205-7.709-.221-7.9-.736-.657-1.783-.206-2.341-.763-5.073l1.321-3.8s-.193,4.228,1.061,5.331,5.118,2.11,5.731,3.035a3.4,3.4,0,0,1,.549,1.248" transform="translate(-627.767 -285.602)" fill="#8ea3ed"/>
              <path id="Path_23881" data-name="Path 23881" d="M754.779,388.808s2.753-.633,3.2-.392a6.476,6.476,0,0,1,1.678,1.434c.138.309-.992-.228-1.359-.324a3.265,3.265,0,0,0-1.169.265,3.892,3.892,0,0,1-2.1.226Z" transform="translate(-671.991 -345.764)" fill="#ffb27d"/>
              <path id="Path_23882" data-name="Path 23882" d="M665.3,251.662s-3.7.254-4.969,2.051c-1.786,2.529-5.289,13.277-3.228,14.693,2.321,1.594,10.515.347,10.515.347a3.331,3.331,0,0,0-.12-1.892c-.384-.614-6.563-1.568-6.85-1.851s3.521-5.58,3.515-6.434,1.137-6.914,1.137-6.914" transform="translate(-584.465 -224.058)" fill="#aec3ff"/>
              <path id="Path_23883" data-name="Path 23883" d="M785.213,395.85a5.33,5.33,0,0,0,.773.829.564.564,0,0,0,.312.065l-.394-.7Z" transform="translate(-699.087 -352.431)" fill="#ffb27d"/>
              <path id="Path_23884" data-name="Path 23884" d="M783.947,388.862l1.685.8a.3.3,0,0,1-.278.109,4.009,4.009,0,0,1-.73-.2Z" transform="translate(-697.96 -346.21)" fill="#ffb27d"/>
              <path id="Path_23885" data-name="Path 23885" d="M788.983,332.71l13.286-.094,3.926-9.967-13.265.094Z" transform="translate(-702.444 -287.26)" fill="#233862"/>
              <path id="Path_23886" data-name="Path 23886" d="M769.1,409.975l-17.544.124,0,.387,17.388-.123Z" transform="translate(-669.123 -365.007)" fill="#233862"/>
              <path id="Path_23887" data-name="Path 23887" d="M868.747,363.318a.46.46,0,0,0-.456-.629.907.907,0,0,0-.81.638.46.46,0,0,0,.456.629.907.907,0,0,0,.809-.638" transform="translate(-772.31 -322.907)" fill="#ebf3fa"/>
              <path id="Path_23888" data-name="Path 23888" d="M1820.275,702.113a3.586,3.586,0,0,0-2.847.146c-4.844.2-5.024,5.164-4.455,7.012.8,2.6-2.027,4.642,1.107,5.692,3.636,1.219,6.688-.706,6.48-.078,11.5.906,3.542-11.5-.284-12.772" transform="translate(-1613.753 -624.91)" fill="#2a539b"/>
              <path id="Path_23889" data-name="Path 23889" d="M1778.989,840.477a12.71,12.71,0,0,1-1.3,1.959c-1.006,1.26-6.288-1.731-5.833-1.959s3.027-7.528,4.116-8.823a4.636,4.636,0,0,1,2.411-1.471Z" transform="translate(-1577.491 -739.125)" fill="#2b478b"/>
              <path id="Path_23890" data-name="Path 23890" d="M1956.7,1389.064s1.458,1.33,1.173,2.275-1.6,1.575-1.778,2.731-.889,1.785-1.529,1.785h-3.051s-.471-.813.667-1.058,1.567-1.6,1.5-2.863a22.253,22.253,0,0,1,.107-2.941l2.417-.56Z" transform="translate(-1737.377 -1236.144)" fill="#4075c1"/>
              <path id="Path_23891" data-name="Path 23891" d="M1819.661,1399.329s.524,5.636-.116,5.951l-8.19-.017s0-.945,1.316-1.155,3.626-.98,4.017-2.7,2.973-2.083,2.973-2.083" transform="translate(-1612.677 -1245.844)" fill="#4075c1"/>
              <path id="Path_23892" data-name="Path 23892" d="M1824.408,833.057a32.68,32.68,0,0,1,0,3.786c-.081,1.369-1.466,3.2-1.662,3.656-.493,1.137-1.049,1.323-1.049,1.323l-4.3,1.054-1.512.37-4.768-1.424s-2.172-6.062-1.3-9.474a26.209,26.209,0,0,1,2.2-5.782,34.031,34.031,0,0,1,8.957-.323Z" transform="translate(-1611.125 -735.506)" fill="#2b478b"/>
              <path id="Path_23893" data-name="Path 23893" d="M1878.709,894.234c-.081,1.369-1.875,3.154-2.072,3.608-.493,1.138-1.049,1.322-1.049,1.322l-4.3,1.054-1.147-1.618s6.961-1.936,5.643-8.074Z" transform="translate(-1665.016 -792.85)" fill="#163560"/>
              <path id="Path_23894" data-name="Path 23894" d="M1805.68,977.663s-2.361,7.35-2.513,9.852,4.514,35.548,4.7,36.7c.177,1.087,1.527,1.78,1.527,1.78a2.043,2.043,0,0,0,1.507.116,3.728,3.728,0,0,0,1.617-.763s1.838-23.568.7-31.987a133.306,133.306,0,0,1-1.151-15.7Z" transform="translate(-1605.384 -870.428)" fill="#ed7d2b"/>
              <path id="Path_23895" data-name="Path 23895" d="M1842.421,975.665s3.6,4.833,3.938,8.1.527,14.742,1.242,17.927,3.344,9.314,3.344,19.247a1.982,1.982,0,0,1-1.117.873,9.186,9.186,0,0,1-.982.271,1.544,1.544,0,0,1-1.727-.82c-1.777-3.578-7.437-15.117-7.728-17.513-.205-1.7-1.992-12.914-5.891-19.5-.936-1.58.574-7.866.574-7.866Z" transform="translate(-1632.121 -868.65)" fill="#f99746"/>
              <path id="Path_23896" data-name="Path 23896" d="M1821.581,967.318a4.95,4.95,0,0,0,2.831.788c2.249.045,7.823-.573,7.823-.573a4.605,4.605,0,0,1,.238,1.423s-6.807,1.717-10.751.251a2.494,2.494,0,0,1-.14-1.888" transform="translate(-1621.663 -861.218)" fill="#163560"/>
              <path id="Path_23897" data-name="Path 23897" d="M1835.229,973.313a1.171,1.171,0,1,1,1.026-1.162,1.1,1.1,0,0,1-1.026,1.162m0-1.983a.835.835,0,1,0,.686.821.764.764,0,0,0-.686-.821" transform="translate(-1633.018 -864.487)" fill="#fff"/>
              <path id="Path_23898" data-name="Path 23898" d="M1764.48,915.4l-10.231.1-5.035-11.832,10.232-.1Z" transform="translate(-1557.353 -804.46)" fill="#d35b31"/>
              <path id="Path_23899" data-name="Path 23899" d="M1833.592,947.491l-.75-.922a2.634,2.634,0,0,0-.875-.53c-.368-.077-1.146-.526-1.221-.4s.6,1.028.6,1.028l.034.005c-.772.581-2.723.068-2.963.305-.292.287.4.908.774,1.257a2.73,2.73,0,0,0,2.265.672c.606-.189,1.561-.381,1.561-.381Z" transform="translate(-1627.802 -841.899)" fill="#ffb27d"/>
              <path id="Path_23900" data-name="Path 23900" d="M1755.7,919.558s.643-.731,1.052-.38-.107,2.075-.5,1.9-.779-1.305-.555-1.52" transform="translate(-1563.066 -818.273)" fill="#ffb27d"/>
              <path id="Path_23901" data-name="Path 23901" d="M1871.508,827.239a5.818,5.818,0,0,1,4.719,3.418c1.308,3.179,3.712,8.411,3.2,10.6-.206.874-2.691,3.9-13.057,1.978a2.424,2.424,0,0,1,.785-1.593s7.3-2.345,7.291-2.811c-.023-.882-.987-1.645-5.066-5.726-1.109-1.109,2.134-5.871,2.134-5.871" transform="translate(-1661.654 -736.504)" fill="#2b478b"/>
              <path id="Path_23902" data-name="Path 23902" d="M1856.8,792.3c.1-.135-.029-.565-.19-1.367a14.959,14.959,0,0,1-.388-3.112l-.216.036-3.63.611s.083.971.085,1.885v.023c0,.794-.214,1.994.053,2.151,1.375.806,3.9.293,4.285-.227" transform="translate(-1649.195 -701.41)" fill="#ffb27d"/>
              <path id="Path_23903" data-name="Path 23903" d="M1852.372,788.762s.072,1.369.075,2.283c2.032-.049,3.116-2.021,3.556-2.894Z" transform="translate(-1649.195 -701.703)" fill="#e8945b"/>
              <path id="Path_23904" data-name="Path 23904" d="M1830.147,740.471s4.759-.678,4.291-3.635-.168-5.036-3.227-4.728-3.469,1.529-3.552,2.554,1.238,5.909,2.488,5.809" transform="translate(-1627.19 -651.78)" fill="#ffb27d"/>
              <path id="Path_23905" data-name="Path 23905" d="M1840.265,728.179s1.852,3.261,3.928,3.457a3.977,3.977,0,0,0,2.856-.477,5.72,5.72,0,0,1-2.379-3.042s-3.688-1.744-4.406.063" transform="translate(-1638.416 -647.58)" fill="#2a539b"/>
              <path id="Path_23906" data-name="Path 23906" d="M1826.008,733.349a2.98,2.98,0,0,0-1.191,1.28,4.837,4.837,0,0,0-.209,2.816s-1.355-2.2-.467-3.71c.942-1.6,1.867-.386,1.867-.386" transform="translate(-1623.792 -652.519)" fill="#2a539b"/>
              <path id="Path_23907" data-name="Path 23907" d="M280.066,1452.479H.323a.324.324,0,0,1-.323-.323v-.123a.324.324,0,0,1,.323-.323H280.066a.324.324,0,0,1,.323.323v.123a.324.324,0,0,1-.323.323" transform="translate(0 -1292.479)" fill="#2e3552"/>
              <text id="_" data-name="" transform="translate(95.378 135.133) rotate(-17)" fill="#f0920f" font-size="18" font-family="SegoeUI, Segoe UI"><tspan x="0" y="19"></tspan></text>
            </g>
          </g>
        </g>
      </g>
    </g>
    <g id="Group_11664" data-name="Group 11664" transform="translate(98.498 159.527)">
      <g id="Group_11648" data-name="Group 11648" transform="translate(0 0)" clip-path="url(#clip-path-7)">
        <path id="Path_23923" data-name="Path 23923" d="M0,1.6H9.208c3.134,0,5.307,1.886,5.307,4.444A4.548,4.548,0,0,1,13.365,8.99a4.339,4.339,0,0,1,2.686,4.029c0,2.686-2.206,4.572-5.339,4.572H0ZM4.476,8C5.723,7.967,7,8.478,8.6,8.478a2.681,2.681,0,0,0,2.909-2.4c0-1.311-1.151-2.046-2.845-2.046H2.973V8.286A4.175,4.175,0,0,1,4.476,8m5.755,7.162c1.63,0,2.813-.9,2.813-2.238a2.455,2.455,0,0,0-2.526-2.334c-.7,0-1.055.256-2.206.256-1.567,0-2.4-.448-3.772-.448a3.363,3.363,0,0,0-1.567.32v4.444Z" transform="translate(0 -1.124)" fill="#ff6b00"/>
        <path id="Path_23924" data-name="Path 23924" d="M67.83,1.6H70l8.888,15.987H75.664l-1.886-3.453H64.154l-1.886,3.453H58.974Zm4.477,9.88L69.013,5.473h-.1l-3.293,6.011Z" transform="translate(-41.323 -1.124)" fill="#ff6b00"/>
        <path id="Path_23925" data-name="Path 23925" d="M129.04,4.13,122.326,4.1V1.6h16.466v2.59l-6.714-.032V17.59H129.04Z" transform="translate(-85.715 -1.124)" fill="#ff6b00"/>
        <path id="Path_23926" data-name="Path 23926" d="M194.5,10.461a3.666,3.666,0,0,0-2.366.8v6.33H189.1V1.6h3.037V8.382a4.733,4.733,0,0,1,2.43-.608c2.078,0,4.508,1.055,6.49,1.055a3.7,3.7,0,0,0,2.366-.767V1.6h3.038V17.591h-3.038V10.972a4.92,4.92,0,0,1-2.43.544c-2.015,0-4.476-1.055-6.491-1.055" transform="translate(-132.502 -1.124)" fill="#ff6b00"/>
        <path id="Path_23927" data-name="Path 23927" d="M261.531,14.612l1.567-2.334s2.11,2.014,6.842,2.014c1.886,0,4.54-.384,4.54-2.3,0-1.407-1.534-1.695-5.083-2.206s-7.418-1.151-7.418-4.764c0-3.517,3.645-5.052,7.322-5.02a14.863,14.863,0,0,1,8.281,2.27l-1.631,2.27a12.3,12.3,0,0,0-6.65-1.983c-2.366,0-4.124.7-4.124,2.4,0,1.5,2.174,1.791,4.86,2.206,3.965.608,7.705,1.375,7.705,4.828s-3.964,4.956-7.61,4.956c-6.267,0-8.6-2.334-8.6-2.334" transform="translate(-183.256 0)" fill="#ff6b00"/>
        <path id="Path_23928" data-name="Path 23928" d="M399.773,1.6h2.11c3.869,0,5.947,3.229,7.13,6.523,1.119,3.229,2.942,6.171,5.979,6.65V1.6h3.037V17.591H415.6c-4.828,0-7.673-4.221-9.08-7.929-.991-2.59-1.726-4.6-3.709-5.052V17.591h-3.037Z" transform="translate(-280.123 -1.124)" fill="#ff6b00"/>
        <path id="Path_23929" data-name="Path 23929" d="M475.2,14.612l1.567-2.334s2.11,2.014,6.842,2.014c1.886,0,4.54-.384,4.54-2.3,0-1.407-1.534-1.695-5.084-2.206s-7.418-1.151-7.418-4.764c0-3.517,3.645-5.052,7.322-5.02a14.864,14.864,0,0,1,8.281,2.27l-1.631,2.27a12.3,12.3,0,0,0-6.65-1.983c-2.366,0-4.125.7-4.125,2.4,0,1.5,2.174,1.791,4.86,2.206,3.965.608,7.705,1.375,7.705,4.828s-3.964,4.956-7.61,4.956c-6.266,0-8.6-2.334-8.6-2.334" transform="translate(-332.974 0)" fill="#ff6b00"/>
        <path id="Path_23930" data-name="Path 23930" d="M543.785,1.6h15.251V4.162H546.791V8.318h11.925v2.558H546.791v4.157h12.245v2.558H543.785Z" transform="translate(-381.033 -1.124)" fill="#ff6b00"/>
        <path id="Path_23931" data-name="Path 23931" d="M330.117,1.6h15.251V4.162H333.123V8.318h11.925v2.558H333.123v4.157h12.245v2.558H330.117Z" transform="translate(-231.314 -1.124)" fill="#ff6b00"/>
      </g>
    </g>
  </g>
</svg>
