<svg xmlns="http://www.w3.org/2000/svg" width="18" height="18" viewBox="0 0 18 18">
  <g id="vuesax_linear_archive-tick" data-name="vuesax/linear/archive-tick" transform="translate(-108 -189)">
    <g id="archive-tick" transform="translate(108 189)">
      <path id="Vector" d="M2.708-.75h7.23A3.475,3.475,0,0,1,13.4,2.7v10.57c0,1.259-.715,2.1-1.779,2.1a2.491,2.491,0,0,1-1.21-.346L6.754,13l0,0a.9.9,0,0,0-.42-.09A.935.935,0,0,0,5.9,13L2.238,15.034a2.5,2.5,0,0,1-1.2.341,1.856,1.856,0,0,1-1.784-2.1V2.707A3.461,3.461,0,0,1,2.708-.75Zm8.916,15c.59,0,.654-.685.654-.98V2.707A2.348,2.348,0,0,0,9.938.375H2.708A2.335,2.335,0,0,0,.375,2.707V13.275c0,.293.064.975.659.975a1.42,1.42,0,0,0,.66-.2l3.658-2.032a2.039,2.039,0,0,1,.977-.234,2.007,2.007,0,0,1,.974.235l3.658,2.031A1.415,1.415,0,0,0,11.623,14.255Z" transform="translate(2.677 1.688)" fill="#fff"/>
      <path id="Vector-2" data-name="Vector" d="M.938,3.375a.561.561,0,0,1-.4-.165L-.585,2.085a.563.563,0,0,1,0-.8.563.563,0,0,1,.8,0l.727.727,2.6-2.6a.563.563,0,0,1,.8,0,.563.563,0,0,1,0,.8l-3,3A.561.561,0,0,1,.938,3.375Z" transform="translate(7.38 6.562)" fill="#fff"/>
      <path id="Vector-3" data-name="Vector" d="M0,0H18V18H0Z" fill="none" opacity="0"/>
    </g>
  </g>
</svg>
