<svg id="Component_21_1" data-name="Component 21 – 1" xmlns="http://www.w3.org/2000/svg" width="35" height="35" viewBox="0 0 35 35">
  <rect id="Rectangle_3176" data-name="Rectangle 3176" width="35" height="35" rx="6" fill="#fff"/>
  <g id="Group_11814" data-name="Group 11814" transform="translate(8.472 8.472)">
    <g id="vuesax_outline_menu" data-name="vuesax/outline/menu" transform="translate(0)">
      <g id="menu">
        <path id="Vector" d="M14.052,1.129H.562A.567.567,0,0,1,0,.564.567.567,0,0,1,.562,0h13.49a.567.567,0,0,1,.562.564A.567.567,0,0,1,14.052,1.129Z" transform="translate(1.693 4.687)" fill="#414143"/>
        <path id="Vector-2" data-name="Vector" d="M14.052,1.129H.562A.567.567,0,0,1,0,.564.567.567,0,0,1,.562,0h13.49a.567.567,0,0,1,.562.564A.567.567,0,0,1,14.052,1.129Z" transform="translate(1.693 8.436)" fill="#414143"/>
        <path id="Vector-3" data-name="Vector" d="M14.052,1.129H.562A.567.567,0,0,1,0,.564.567.567,0,0,1,.562,0h13.49a.567.567,0,0,1,.562.564A.567.567,0,0,1,14.052,1.129Z" transform="translate(1.693 12.185)" fill="#414143"/>
        <path id="Vector-4" data-name="Vector" d="M0,0H18V18H0Z" fill="none" opacity="0"/>
      </g>
    </g>
  </g>
</svg>
