<svg id="pdf-document-svgrepo-com" xmlns="http://www.w3.org/2000/svg" width="16.657" height="19.036" viewBox="0 0 16.657 19.036">
  <g id="Group_11574" data-name="Group 11574">
    <path id="Path_23919" data-name="Path 23919" d="M1.517,0A1.523,1.523,0,0,0,0,1.517v16a1.523,1.523,0,0,0,1.517,1.517H15.14a1.523,1.523,0,0,0,1.517-1.517V6.038L11.035,0Z" fill="#be2325"/>
    <path id="Path_23920" data-name="Path 23920" d="M42.111,16.212v.265h-3.4S37.044,16.133,37.1,14.7a1.552,1.552,0,0,0,1.592,1.512Z" transform="translate(-25.455 -10.272)" fill="#6b0d12"/>
    <path id="Path_23921" data-name="Path 23921" d="M37.1,0V3.874a1.528,1.528,0,0,0,1.618,1.539h3.4Z" transform="translate(-25.458)" fill="#fff" opacity="0.5"/>
  </g>
  <path id="Path_23922" data-name="Path 23922" d="M11.374,43.71H10.5V44.8a.189.189,0,0,1-.212.186A.181.181,0,0,1,10.1,44.8V42.092a.294.294,0,0,1,.292-.292h.982a.948.948,0,0,1,1.008.955A.934.934,0,0,1,11.374,43.71Zm-.027-1.565H10.5v1.22h.849a.611.611,0,1,0,0-1.22Zm2.759,2.839h-.8a.294.294,0,0,1-.292-.292v-2.6a.294.294,0,0,1,.292-.292h.8a1.593,1.593,0,1,1,0,3.184Zm0-2.839h-.69v2.467h.69a1.176,1.176,0,0,0,1.22-1.247A1.141,1.141,0,0,0,14.106,42.145Zm4.325,0H16.892V43.18H18.4c.106,0,.159.08.159.186a.153.153,0,0,1-.159.159H16.892V44.8a.189.189,0,0,1-.212.186.181.181,0,0,1-.186-.186V42.092a.294.294,0,0,1,.292-.292h1.645c.106,0,.159.08.159.186C18.617,42.065,18.537,42.145,18.431,42.145Z" transform="translate(-6.663 -29.057)" fill="#fff"/>
</svg>
