<svg xmlns="http://www.w3.org/2000/svg" width="18" height="18" viewBox="0 0 18 18">
  <g id="vuesax_linear_grid-7" data-name="vuesax/linear/grid-7" transform="translate(-300 -252)">
    <g id="grid-7" transform="translate(300 252)">
      <path id="Vector" d="M9.563,15.375h-4.5c-2.078,0-3.485-.44-4.429-1.384S-.75,11.64-.75,9.563v-4.5C-.75,2.985-.31,1.577.634.634S2.985-.75,5.063-.75h4.5c2.078,0,3.485.44,4.429,1.384s1.384,2.351,1.384,4.429v4.5c0,2.078-.44,3.485-1.384,4.429S11.64,15.375,9.563,15.375Zm-4.5-15C3.3.375,2.148.71,1.429,1.429S.375,3.3.375,5.063v4.5c0,1.76.335,2.914,1.054,3.634S3.3,14.25,5.063,14.25h4.5c1.76,0,2.914-.335,3.634-1.054s1.054-1.874,1.054-3.634v-4.5c0-1.76-.335-2.914-1.054-3.634S11.322.375,9.563.375Z" transform="translate(1.688 1.688)" fill="#fff"/>
      <path id="Vector-2" data-name="Vector" d="M14.813.375h-15A.563.563,0,0,1-.75-.187.563.563,0,0,1-.187-.75h15a.563.563,0,0,1,.563.563A.563.563,0,0,1,14.813.375Z" transform="translate(1.688 7.688)" fill="#fff"/>
      <path id="Vector-3" data-name="Vector" d="M-.187,9.375A.563.563,0,0,1-.75,8.813v-9A.563.563,0,0,1-.187-.75a.563.563,0,0,1,.563.563v9A.563.563,0,0,1-.187,9.375Z" transform="translate(9.188 7.688)" fill="#fff"/>
      <path id="Vector-4" data-name="Vector" d="M0,0H18V18H0Z" fill="none" opacity="0"/>
    </g>
  </g>
</svg>
