<svg xmlns="http://www.w3.org/2000/svg" width="91.652" height="91.652" viewBox="0 0 91.652 91.652">
  <path id="Icon_awesome-user-circle" data-name="Icon awesome-user-circle" d="M45.826.563A45.826,45.826,0,1,0,91.652,46.389,45.818,45.818,0,0,0,45.826.563Zm0,17.739A16.261,16.261,0,1,1,29.565,34.563,16.261,16.261,0,0,1,45.826,18.3Zm0,63.565a35.409,35.409,0,0,1-27.071-12.6,20.6,20.6,0,0,1,18.2-11.05,4.522,4.522,0,0,1,1.312.2,24.465,24.465,0,0,0,7.558,1.275,24.372,24.372,0,0,0,7.558-1.275,4.521,4.521,0,0,1,1.312-.2,20.6,20.6,0,0,1,18.2,11.05A35.41,35.41,0,0,1,45.826,81.867Z" transform="translate(0 -0.563)" fill="#f48221"/>
</svg>
