<svg xmlns="http://www.w3.org/2000/svg" width="24" height="24" viewBox="0 0 24 24">
  <g id="Group_11913" data-name="Group 11913" transform="translate(-3987 -9179)">
    <rect id="Rectangle_3907" data-name="Rectangle 3907" width="24" height="24" rx="2" transform="translate(3987 9179)" fill="none"/>
    <path id="Icon_ionic-ios-globe" data-name="Icon ionic-ios-globe" d="M12.375,3.375h-.03a9,9,0,0,0,0,18h.03a9,9,0,1,0,0-18Zm7.8,8.394H16.814a17.04,17.04,0,0,0-.424-3.3,13.181,13.181,0,0,0,2.15-.909A7.752,7.752,0,0,1,20.172,11.769Zm-8.4,0H9.1a15.38,15.38,0,0,1,.381-2.99,13.164,13.164,0,0,0,2.293.307Zm0,1.212v2.678a13.22,13.22,0,0,0-2.293.307A15.378,15.378,0,0,1,9.1,12.981Zm1.212,0h2.652a15.289,15.289,0,0,1-.381,2.981,12.915,12.915,0,0,0-2.272-.3Zm0-1.212V9.087a13.22,13.22,0,0,0,2.272-.3,15.335,15.335,0,0,1,.381,2.986Zm4.734-5.1a12.021,12.021,0,0,1-1.644.671A8.934,8.934,0,0,0,14.924,4.98,7.83,7.83,0,0,1,17.714,6.668Zm-2.787.982a12.177,12.177,0,0,1-1.947.26V4.734A5.243,5.243,0,0,1,14.928,7.65ZM11.769,4.716V7.905A11.967,11.967,0,0,1,9.8,7.641,5.24,5.24,0,0,1,11.769,4.716ZM9.8,4.993A9,9,0,0,0,8.658,7.334a12.291,12.291,0,0,1-1.623-.666A7.713,7.713,0,0,1,9.8,4.993ZM6.209,7.568a12.92,12.92,0,0,0,2.129.9,16.353,16.353,0,0,0-.424,3.3H4.582A7.712,7.712,0,0,1,6.209,7.568ZM4.578,12.981H7.91a17,17,0,0,0,.424,3.3,13.709,13.709,0,0,0-2.129.9A7.753,7.753,0,0,1,4.578,12.981Zm2.453,5.1a12.11,12.11,0,0,1,1.627-.666A9.037,9.037,0,0,0,9.8,19.761,7.9,7.9,0,0,1,7.031,18.082ZM9.8,17.1a12.03,12.03,0,0,1,1.969-.264v3.193A5.232,5.232,0,0,1,9.8,17.1Zm3.18,2.912v-3.18a12.177,12.177,0,0,1,1.947.26A5.24,5.24,0,0,1,12.981,20.016Zm1.947-.247a8.934,8.934,0,0,0,1.147-2.358,11.823,11.823,0,0,1,1.644.675A7.92,7.92,0,0,1,14.928,19.77Zm3.613-2.588a13.182,13.182,0,0,0-2.15-.909,16.951,16.951,0,0,0,.424-3.293h3.358A7.718,7.718,0,0,1,18.541,17.182Z" transform="translate(3986.625 9178.625)" fill="#0b3855"/>
  </g>
</svg>
